/* XPM */
static char *_1c1d400c3174d49879b2eca569a0a12[] = {
/* columns rows colors chars-per-pixel */
"80 80 128 2 ",
"   c #000000",
".  c #090603",
"X  c #0B0B0B",
"o  c #171008",
"O  c #1C130B",
"+  c #141413",
"@  c #1B1710",
"#  c #1A1A1A",
"$  c #21140C",
"%  c #221B0B",
"&  c #291C0E",
"*  c #271A11",
"=  c #2F240F",
"-  c #2E2515",
";  c #27231A",
":  c #352213",
">  c #352911",
",  c #3B2C14",
"<  c #3A2E1A",
"1  c #3F3115",
"2  c #3E311A",
"3  c #252525",
"4  c #2C2A24",
"5  c #2C2C2C",
"6  c #332F26",
"7  c #322F2A",
"8  c #373126",
"9  c #3B3226",
"0  c #32312D",
"q  c #3B342A",
"w  c #333333",
"e  c #3C3935",
"r  c #3D3D3C",
"t  c #402E16",
"y  c #433216",
"u  c #453419",
"i  c #4A351A",
"p  c #47381F",
"a  c #4E381D",
"s  c #51341C",
"d  c #52391C",
"f  c #5B3D1E",
"g  c #473620",
"h  c #463827",
"j  c #4E3921",
"k  c #473A2C",
"l  c #4F3A28",
"z  c #523C24",
"x  c #5B3E22",
"c  c #493F35",
"v  c #413E3B",
"b  c #603F20",
"n  c #5C4125",
"m  c #5F442C",
"M  c #45423E",
"N  c #4C443A",
"B  c #52463D",
"V  c #654122",
"C  c #6D4525",
"Z  c #6F4827",
"A  c #63452A",
"S  c #6D492D",
"D  c #704626",
"F  c #704827",
"G  c #754B29",
"H  c #7A4E2B",
"J  c #7D502D",
"K  c #724E30",
"L  c #755235",
"P  c #7C5334",
"I  c #444444",
"U  c #494746",
"Y  c #4B4946",
"T  c #4A4A4A",
"R  c #564D44",
"E  c #5B4F45",
"W  c #514F4D",
"Q  c #5D5147",
"!  c #5C544D",
"~  c #545353",
"^  c #585553",
"/  c #5B5856",
"(  c #5C5B5B",
")  c #605348",
"_  c #66584D",
"`  c #605A56",
"'  c #6B5D52",
"]  c #615F5D",
"[  c #705F54",
"{  c #63605E",
"}  c #68615C",
"|  c #736256",
" . c #796355",
".. c #746459",
"X. c #7B695C",
"o. c #636363",
"O. c #6A6664",
"+. c #6C6967",
"@. c #6B6A6A",
"#. c #7D6D62",
"$. c #726E6B",
"%. c #74706D",
"&. c #79736E",
"*. c #727272",
"=. c #7A7672",
"-. c #7A7A7A",
";. c #81512E",
":. c #855331",
">. c #895532",
",. c #8E5935",
"<. c #845738",
"1. c #86593B",
"2. c #8D5C3A",
"3. c #915B36",
"4. c #955D38",
"5. c #985F38",
"6. c #96613C",
"7. c #9D623B",
"8. c #A1663D",
"9. c #A4693F",
"0. c #83654F",
"q. c #886A55",
"w. c #A26940",
"e. c #806D61",
"r. c #867467",
"t. c #8A786C",
"y. c #807A75",
"u. c gray51",
/* pixels */
"                                                                                                                                                                ",
"                                                                                                                                                                ",
"                                                                                                                                                                ",
"                                                                                                                                                                ",
"                                                                                                                                                                ",
"                                                                                                                                                                ",
"                                                                                                                                                                ",
"                                                                                                                                                                ",
"                                                                                                                                                                ",
"                                                                                                                                                                ",
"                                                                                                                                                                ",
"                                                                                                                                                                ",
"                                                                                                                                                                ",
"                                                                                                                                                                ",
"                                                                                                                                                                ",
"                                                                                                                                                                ",
"                                                                                                                                                                ",
"                                                                                                                                                                ",
"                                                                                                                                                                ",
"                                                                                                                                                                ",
"                                                                                                                                                                ",
"                                                                                                                                                                ",
"                                                                                                                                                                ",
"                                                                                                                                                                ",
"                                                                                                                                                                ",
"                                                                                                                                                                ",
"                                                                                                                                                                ",
"                                                                                                                                                                ",
"                                                                                                                                                                ",
"                                                                                                                                                                ",
"                                                                                                                                                                ",
"                                                                                                                                                                ",
"                                                                                                                                                                ",
"                                                                                                                                                                ",
"                                                                                                                                                                ",
"                                                                                                                                                                ",
"                                                                                                                                                                ",
"                                                                                                                                                                ",
"                                                        X + # # # # # # # # # # # # # # # # # # # # 3 # +                                                       ",
"                                                    . . # ( o.( o.( o.o.( ( o.( @.@.@.@.@.@.@.*.-.-.-.-.U . .                                                   ",
"                                                    I ( ~ T T T T T T T T T T T T T ~ ( ~ ( ( ( ( o.o.o.@.o./ X                                                 ",
"                                                  I @.o.I r 5 5 5 5 5 0 0 0 w w w w w w r r I I T T T W ( o.~ I +                                               ",
"                                                . ( *.@.] ( ~ T T U I U U T T T I I I I T I U T T T I I T T r U +                                               ",
"                                              . * ' +.%.-.u.u.-.*.*.@.@.@.@.o.o.( o.( ( ( ~ W ~ ~ ~ I I r r 0 0 # .                                             ",
"                                              $ >.>.| +.%.=.=.@.@.@.{ { ] ( ~ ^ ~ ~ W U U U M r r r w 0 0 0 0 2 y %                                             ",
"                                              @ H >.;.P <.1.P L S S S A A A A A m m n x z j j i < 2 2 < 1 1 2 i y %                                             ",
"                                            * b G >.>.,.6.6.:.,.3.,.,.:.H H :.:.H H G Z x f V b f d u d f a 1 y u , %                                           ",
"                                            : ;.;.;.,.6.7.5.,.7.7.7.7.>.J ;.4.3.,.>.:.G b b V Z V V d f f f i 1 i i =                                           ",
"                                            : J >.H 3.7.7.,.4.7.8.w.5.;.H :.3.3.,.>.;.H V f V D Z V b d f V f y i u -                                           ",
"                                            : H 1.J 2.7.7.>.7.8.5.5.5.:.J >.3.3.>.>.;.H D d V Z Z Z V d d V f y p k 5                                           ",
"                                          5 T / +.&.+.0.7.>.8.7.7.5.4.J >.3.3.,.>.;.H G D d V Z D D V d h v v r v r 3                                           ",
"                                          w ~ o.@.%.%.&.r.r.r.#.X.#.....[ [ | ' [ ' _ ) Q E R ! Q B B N I I w w w w 5 & .                                       ",
"                                          w ~ +.@.$.*.*.*.-.$.@.O.o.o.o.( ( ( ( ^ ~ ^ ~ W W W W Y I U I I r 0 0 0 0 0 1 .                                       ",
"                                          q ! } o.@.@.@.@.-.o.o.o.o.o./ ( ~ ( ~ U U U T Y T T I r r r r r w w w 0 0 8 , .                                       ",
"                                          s F m T ~ { o.@.@.o.] ] ] ] ~ ^ ^ ^ ^ T T U U Y I N N M r r r r r 0 0 w 9 i , .                                       ",
"                                          s J :.G 2.2.1.P n P P P K S h z m A A x n x x f - y i 2 2 2 u 2 u p p u u i , .                                       ",
"                                          s ;.:.;.5.7.7.4.H 5.4.3.3.3.Z H ;.;.H ;.G D D V y f b b b f f i i a a u u i 1 .                                       ",
"                                          s ;.:.H 5.8.w.7.,.8.7.8.5.5.;.,.,.,.>.;.;.;.D C f V D D D b b d i d d y u i , .                                       ",
"                                          s :.:.G 5.8.w.7.,.8.8.5.7.5.;.,.,.>.:.>.;.G G C f V D D D V b d i d a y u i , .                                       ",
"                                          s J :.H 5.w.w.7.,.8.8.7.7.5.;.>.,.,.:.;.;.;.G C d V C D D V b d i a a y u i 1 .                                       ",
"                                          s ;.:.H 5.8.9.7.,.8.7.7.7.5.H >.,.,.>.>.;.;.G D d V D D C V b d i d d u u i , .                                       ",
"                                          s ;.:.H 4.8.9.7.,.8.8.7.7.5.H >.,.>.>.;.;.G G D d V D D D V b d i d d u u i , .                                       ",
"                                          s ;.:.H 5.8.9.7.,.8.8.7.7.5.;.>.3.>.>.>.;.;.G C d V D D D V b d i d i y u i , .                                       ",
"                                          l :.:.H 5.8.9.7.,.8.8.7.7.5.H >.,.>.:.>.;.G G D d V D D D V b d i d d y u h 2 .                                       ",
"                                          T  .<.P 4.8.w.7.>.8.7.8.7.5.D >.3.>.>.>.;.H D b x b D D b b b b s j i u q v r .                                       ",
"                                          I @.=.&.=.$.q.7.>.8.8.7.7.5.H :.3.,.>.:.;.H H D j b G b ;.b b x j v v r r r 0 .                                       ",
"                                          r o.$.*.*.*.=.t.#.X.X.X.X.X.' [ [ ' ' ' ' _ ) Q R E ) ) B B c c v v w w e 5 X .                                       ",
"                                          e / o.O.@.*.-.-.*.@.+.o.@.o.o.] ( ( ( ~ ~ ~ W ~ W W T R I I I I I e w 0 0 4 O                                         ",
"                                          3 I ! ( o.o.@.$.@.] o.o.o.( ( ( / ~ ~ T T U U T T T I r v I v I r 7 7 7 7 8 , .                                       ",
"                                            & m T ^ ^ ^ ( ] ] ] ] ] ] ~ ~ ~ / ^ T U U U U U U I v r r v r e , : , t u i .                                       ",
"                                            : F G S S S S S S S A A x < l n x z j z j z g - u j l j j t < < i t u i u i .                                       ",
"                                            : H :.G ;.,.,.;.2.,.:.P H f Z G F F F F Z V b u x b b x f y t p s t i i > o                                         ",
"                                            O i J :.>.6.6.;.6.5.4.3.:.C H ;.;.H ;.H H G V d V D Z b b i i d i y i i =                                           ",
"                                              O L <.>.,.3.J >.3.,.3.:.b D G ;.H H H H F f d V D C b f u u i i y i , %                                           ",
"                                              # { 1.P :.>.,.G >.3.,.:.C C H H H ;.H F V s d V D C V d u i i 1 i u %                                             ",
"                                              # o.&.-.y.e.>.H ;.>.>.:.F b D H H G H G V d f V V V b y i y 1 1 y 8 #                                             ",
"                                              . 3 @.*.*.%.r.X.#.$.#...' ' ' ' ` ) ) ) E M N R B c c e q 0 6 4 ; + X                                             ",
"                                                  5 ( @.@.*.*.*.@.@.o.o.o.( ( ( ~ T ~ T I I I v r w r w 5 5 3 + .                                               ",
"                                                    e T W o.o.( ( ( ( ~ ~ W ~ W U I I I I r e r e 0 5 0 3 # #                                                   ",
"                                                        + T U T T T T r I r r I r w 0 w w w 3 3 3 3 3 3 #                                                       "
};
