/* XPM */
static char *result[] = {
/* columns rows colors chars-per-pixel */
"80 80 78 1 ",
"  c #010102",
". c #00000B",
"X c #0B0B0B",
"o c #000013",
"O c #00001D",
"+ c #090919",
"@ c #121212",
"# c #16161F",
"$ c #1C1C1C",
"% c #000024",
"& c #0D0D23",
"* c #00002D",
"= c #0A0A2D",
"- c #151521",
"; c #1E1E24",
": c #1E1E29",
"> c #000031",
", c #00003C",
"< c #0A0A38",
"1 c #1A1A35",
"2 c #19193C",
"3 c #212121",
"4 c #25252F",
"5 c #2C2C2C",
"6 c #222238",
"7 c #34343D",
"8 c #3C3C3C",
"9 c #000043",
"0 c #00004C",
"q c #08084E",
"w c #101045",
"e c #181844",
"r c #15154B",
"t c #000054",
"y c #00005B",
"u c #0A0A5F",
"i c #121254",
"p c #1C1C54",
"a c #12125D",
"s c #19195F",
"d c #313142",
"f c #000063",
"g c #0D0D64",
"h c #00006B",
"j c #0A0A6A",
"k c #111163",
"l c #1F1F65",
"z c #10106B",
"x c #000073",
"c c #0B0B73",
"v c #00007C",
"b c #0A0A7A",
"n c #151572",
"m c #15157B",
"M c #222268",
"N c gray30",
"B c gray33",
"V c #000084",
"C c #0A0A83",
"Z c #00008B",
"A c #0A0A8B",
"S c #000094",
"D c #00009B",
"F c #151590",
"G c #15159D",
"H c #222283",
"J c #0000A3",
"K c #0000AB",
"L c #0000B3",
"P c #0000BB",
"I c #0000C4",
"U c #0000CA",
"Y c #0000D3",
"T c #0808D5",
"R c #0101DB",
"E c #0F0FE0",
"W c #1818E8",
"Q c #2A2AF1",
/* pixels */
"7axvvvvvvvvvvvvvvvvvvvvvvvxp77bVZZVZVZVZVZZVZVVZVZVZVZVZZVZVZVZVVd7phvvvvvvvvxg5",
"5jSSDSSDSSSDDSSDSSDSSDDSSDSg54SKKKKKKKKKKKKKKKKKKKKKKKKKKKKKKKKKJ65pDDJDDJJDJDb3",
"@xJJJDDDSJJDSSDJSSDDSDDZZZVq@3JPLPLJJPPJDSDKJKLKDDDKPPKJJKPPPPKJA&$kLLJKJKKLKDcX",
" xJJSZDSZJDSZZSDVVDSvSZvxhf>X4KKKPJVDJJSxhvVvSJDVhvSDJSVZZDKKDSVh.@aPPJDDDKKDZy ",
" hDSvVSDDSvvZJSJvvSSvxxvvhh>X:DLKSZZZvxZyfytthZDZyhhfyhhyyhvVhfff.@sKLJJSZDJJv9 ",
" xSSDvKPPSVvVVSZVVvhfxxhyyf>X;+ooooooo.o.....oooo...........o.... @kKJKPPLKJZvt ",
" xSZZSPILxvvvVJSSZZvhhxxyy0*X;fxxhxxxhxhxhxhxxxhxhxxxu@@#@#@@##@#@$aPLKKKJZZxf0 ",
" hDZZJPPKVSZZSJDDDZvxhhfyft>X-SKLLKKJJDJKJDJKDDJKLLJJV@$rkkkaaaiw33kKJJJDZVVhf0 ",
" xDDDKKKJJDSSDJJDSZxxhfyfff>X:ALPPIPKDDJLJSDJJDJKPPKJv $bJJDDDSVf-3aKDDDSvVZxh0 ",
" hJJSJKLKJDVxxDJDZZVvhfyt9,%X3DKPIRIPKKPJDDDDKKKJDJDDx $bDDSZSZxy.@aKDDDZxZZVx0 ",
" hDSVSJJDZSVVZxvVZZVxvvxft9%X:SKPIIIKJKJJKKSDJZSDVDDSf $bDDDDVvxy.@aKPJDDJDZZh> ",
" xDZVZDSVVVSDShfhhxxhxvvxy9%X:SKLPLJDDJKJKJJDDZVxvVVv0 $bJDSVvxft.$kKSVSDJJSxt* ",
" hSVZSSZVxZDJSxffffhfhxvvy0%X;SKLKLJDDDLLLKJDVxxvvvxh9.$bJJSVVVf0.#kKvDDSSDDh0> ",
" fZVZDZZVvVSSZxhfyyhyffhhy9%X:SLPKKKJDJKPPLKJhfxVVxhy, $bJSSVSZht.@kLZKDZvZSx0> ",
" hZZSvvZDVhxhfvhyyhx0t099y0%X:SLLJJKLLKLPLKKDhhhvDhft> $bSvZSVhtt.#kPPVvxffvvf* ",
" hZVDvhxZZvhhxfxht0xh09,9f0%X:ALKJJDKKDDJKLKJSSVvvyyy9 $bSVZZvhht.#kKvxhhxfxvf> ",
" fSZVvvxxhfyfhxhhft0tyt9ty0%X;AKPUPSSSDDSZZZVZSSVvfft, $bDSZZxxhy.#kKvvhhyyfft* ",
" hSZVxhxhfhfytyttt09,t09t09%X;SLIUISZZSDDVvVVVZVvvfyt> $bDSZSxffy.@2t,,,>****%O ",
" 0ffx000t0y0,>>*>>>**>>>***OX:SLPIPSVZZJJZVZVVVxhvhy0> $bSZDJvftt.#@XXXXXXXXXXXX",
"................... .........;SLKJJSZZSJJJSZZSxfhvfy0> $bJJJDDVyu.@3;:;;$-:;3;;5",
"SDDDZSSZZSZSSDSZZZh.VDDSZZZVf.SKJDJZSDJJJJSVDSVvxyy0,> $cDDDJDVhy.#iSASSt=KKJKKK",
"LLLJDKLLKJSDJDZJJSf.DLJJLPSDV.ZJJJJKJDDJJJSVxvvht9yt0> $cDSVvVvht.@iKKSZ0*PPLKPP",
"PLJDDSJKJSVSDSvZSSh.DLLKPJZZx.SKJDJPKDZSSSZxhxxy,9ft9> $cDZhffhf0.@aJKDZ9*PLKKLL",
"PLJDDSDJDVvZSSvvZZh.SPPPKDZvy.ZKKDJPJSZvVVxhvxhy90yt9> $cSVyyyyt,X@aJJJV9>PKKLLK",
"KJDJLKJSZvvvZZvvvvy.DPLKKDDV0.ZKKJJJSSDvvhfxhyyyyffy0> $cZxyfyy0,.#iDVvf>*IPPPLL",
"JSSDKPLDVvSSZVSfxvy.DPKSVSDv9.SJJDSDSDSxhyyffyyfyy999> $cZxyyt09,.@iSffy>>PPLLKK",
"JDSSDLIJVZVVvhxhxvy.DJJJvVVx0.*>>>***>*%%OOOOOOO%Oooo. $=%%%OOOoo XO*OOO+wPPKJJJ",
"KDZVSJLJZZvVxfhxhht.DDJDxvvh9 X@@@@@@@X@X@@@@X@@X@@X@@@$@@@X@9tytytytyt&@ePLJJDD",
"LDZVZSDDZVVZvhxxhy9.DJDZhxxh9 $1eeeeeeeeeeeeeeeeeeeeeeeee21$3CLLLPKKKKKw$ePKJDDS",
"LJSZSVSZVDDVxxvfxh9.SPKSVhyy0 $CLLKLLKLLLKLKKLKLKKKLKKLKDDC$3bPILIKJJJS*@ePLDDSD",
"KKJSZJDDSDSVvvhyyy9.ZPDVVVhf9 $CLPLJPPPPLPLJLJPLJVJPPPPZDV9X$CPILIIPJDZ*XePPJSDD",
"LKDZvSJJDxVZZVVhyy9.SSVhvxfy0 $CPLJKPUYUPIUIKLKKJJLKKKKDZx9 $CPIPIIPDZV%@ePPLKDD",
"KJSVVSJLJVZZZVVxfy9.ZVhyffyy0 $CKLJPIYRRIURYPPDSJDDJDZSJvf, $CPPPIPJSSx%XePPPLJJ",
"JDZZZDKKKJZVvVVxyy9.fft99999, $CLKJPIUYRPUYYYKSZSvvZSVvSht9 $CLKJPKDSDhO@ePPPKJK",
"KJJJDDDKKJhxxxxhft9           $bPPPLKPIIJJPYUKJSvvvxVSvxfy9.$CPPJJJJDVhO@ePPPPKL",
"JSZSDJDJJJhhfyfy09* #$$$$$$$$$3CKLPLLLKKJJKPKJJSVVZvvvyyyy9 $CPUIKJSVvx%@ePKKKPL",
"JDZSJJJDSVhhyyfft0,.$kCCCCbbk33CKKKLLJSSJKPKZDJSvZZVvxhhyt9 $CPIIJDDDSfOXePJJKLK",
"DSSZSJJSVxhfyyyftt9 $CLKDKJDx@3CKKKPLDVZDKKDvJJDZvVVxhhxhy, $CPPIDDDDJfOXePLJJJS",
"DZZSZDDZvffyyfff009 $CKJSDSSh $CPPLLLJSSJJDSvDDJSxvvhyxhxy* $CLLPDDDDJfO+eILDSSV",
"SZZVvVZVxffhxvvf09> $CKJJSZZh $CLPPJKKLKDDSvvvSJShyfyyfhht*.$CKKJZJKJDhOXePZVZDS",
"DZSDSxvvvhfhxvvht0* $CKJDZvh0.$CPPJVDJLKJJSxxvxhxxhf099y09> $CKPPSJKKShO@ePZZVVv",
"SDDDZVvxhfyyyfxfy0* $CKJZDZx9 $CKJJJSSJKDSVxxvhfhhxft,9yy0* $CKKIJSDDSfOXePKZvvv",
"ZDDSVVvvxhy00tfyyt*.$CLKDSVx9 $CJSKJSDJZZvhhvvxhfhfyyttfy0> $CLPLJDVvVfO@ePLDZZZ",
"vZSZVvvvvvyt0tytft> $CLKKVhf0 $CDSPVSJDvxxfhvvvxfyyyyyyyt9>X$CPPJJSvhhfOXePKJDSS",
"vVVVvxxvvvytyfttyy9 $CKKKJxy9 $CKKLVDJShffyfvvvxfttytt0009*.$CPPJSVZZxyO@ePKJDSZ",
"vVvhxxhxvxyfyt9tyy,X$CKDShxx0 $bKDVDDSxyyytthfffyy99999999* $CPIDVSSSvfOXrPDJJDv",
"vZZxhvhhxfft00t000> $CJDSSxf0 $=>>**>*%OOOOOO%OOOOoooooooo. $bKLJVvvVxfO@ePDSZZv",
"vZZVxxxhhtyt99y999> $CKDSKVh9 $#@X@@@@X@@X@@@X@@@@X@X@@@X@@@$bKKJSvhhhtO@ePKSZVv",
"vVSZVhxxhytt09y900* $CLJZJZh9 $12eee2ee2e2eeeeeee2eee2ee2e2$3bKKKKSxyf9oXePPDVVv",
"xVZvxyfxxh,,,,,,,,* $CKJZVfy0 $bJJJJJJJJJJJJJJJJJJJJJJJJJJb$$bKLJPKSxf9o@eKSZVvv",
".oo............... X$CLJvvfy9 $bKPPPPPPPKKJJJJJJJJSZVZPDDSfX$bLPJJLJvy9o@-oooo.o",
"@@@###=,900yyyyt00<@$bKJvvxf9 $bPPIIPLKKKKLPLDDDJJDZVZZZDZy $bJKJJDSvt9oX:yhfy9 ",
"3rakkzVZZSSDDJDDSSc33bJJVvvx9.$CPPUUIPJKLLPPPZZZZSDSSSZZZvt $bKLJSVxht9oX2ZDZVy ",
"3cJKPPPPPPPPPPPPPPS@;bJDZxxh0 $CLPIIUPPPLKLPKVvvvvDDDSSZVx0 $bKPDvhfyy9oXeSSVxy ",
"3bKPPPPPPKJKLPJDJLZ $bJDSyff0 $CPPPPPIYYPKKJvvvvvvvZZvvxZV0 $bKJVxhyyh9oXeSVxxt ",
"3bLPKLUYUKPPPLDJLPZ $bJSVfyt9 $CPPPLPUYYUDZJSvvvxxhVVvvvvx0 $bJDxfhfyy9o@2Sxxh9 ",
"3CPPPLUYUPJJJKLPKKV $=**%OOOo $bKLPLPPUYYPJJDSVxxhfhhhvvvx0 $jZVxyyyyy9o@2Zvxf9 ",
"3ALLLKPIPPDDDJPKDSx $#@@@@@XX@;bJKPPKKLIPPLJJDSVxxhffhhhfy9 $<9,,****>%.X1Vvhf9 ",
"$ALKKJJKKKDDDDPKDSh $1eeeee2133cJKPIJDDPKLKJJDDZVvhfhxyy00> $@XXXXXXXXXX@1juqq, ",
"3APPKDZDLKJDDDJLPKb $CPPKJJDb33bJKIIKSDSKKJJJVvVSVxfffyt0,>.$;:;::35::;:::::::- ",
"3APPDDLLKZJKKKKZDJv $AJSPZSShX#bKPIPLJDDPPPLJVvvVvhfffyy09* $cDJDDKKKKKKKKJKKJb ",
"3APPLLKJDKSJDZZDSDv $AKDLJDZy $cKLKKKKKJPPPPLDVvvxyyfffft0> $VLKKJKLKLLKJDPKKDh ",
"3ALLPKJDDPJDSxfZSDv $APJSKSVy $bKKJJKJJKPPPPPJSSZfyyyyfhhy9 3CKKKPPLLKKJDDKJDSy ",
"$ALKLDJKPPLDZvyxSJv #APKZDZvy $bKPJJJJJDKPPPPJJJSyyyyyfhff9 3CKKLUTTLLLDSJJJDVt ",
"3APJDSLUYPKSSDvvSJv $APKJDZZv $bKPPJJKKVVKPPPJJJShyyyft000> $CPPPUUUILKSZZJSVx0 ",
"3ALKPJUWQRJSDDSZVVh $APKJVSSt $bJKPDDSVvvZDJJJZVvvffyyty09> $CJJPJPUIKLJJSvVvh9 ",
"3ALKPKPTEIJZSJDfyft $ALKKJZv0 $bJKPJSZVvvvVZZZxfhZZxhfy099*.$CLLLDJJJJKSZVvvhf0 ",
"3APKPLPPPJDVZZVt0t0 $CPKKJZx0 $bJJPKSSDvvVVVvVxfhDSVxhfy00, $CLLJDDSDJSvxxvhyy0 ",
"3AKKPLKKDVZSZvvyty0 $APLKDZv0 $bJJPPKKKvvVVvvVvffSSSVxhfyy9 $CKKJDSDDJVxhhxfyy9 ",
"$bKPLKJSvVSDJDSvhf0 $APKJZVVy.$bKLSJLKDVvxxxVVhtfvSSZvhyy0* $CLKDJDSDJVxhhxvft9 ",
"3ALKPKSZZJVSJDSxxh9 $ALKLVvvy $cKPDJJJSZDDZhxyhftyvvvxfyt0> $CKLPKSDKKSVxhSSh0> ",
"3ALKPKDZZZxVDJJZvh9.$APKJxhht $bJKJDDSVZJJDZxfhhfyyyyyf009> $CPPLSDJLKKSVvSDvy* ",
"3CKJJSSSZhyhVDDSvh0 $APLJxhf9 $bJKJDSDDSSDJSffhxhyt090y99,> $APLJZDKKKLJZvZZVf* ",
"3CKDVvVZZxyfxZZZxh0 $ALJSvxf9 $bJKKSDKPJvZSVytfffyy999t0,9> $ALKJSDJJJJSVvvvxy* ",
"3CKShhvxxDVvVVyfyy9 $CKSfffy9 $bJPPVJPLDyfffftyt0009990t9,> $APKJPKJDvVxxxvvf0> ",
"3bJDVVxxvffyfhhfhh0 $CKDVxff0 $bJKKLKDVSfyfffyt099fhfy90909 $APPPDJSVvxxvvhf0t9 ",
";bJSvVxvvxhhhhxxxvu@3bDZvvxxu#$cJJJKJZvVxxxxxhfyttxvxxfttyt$$CLKKVSDZvvvvvvhfht ",
"5cSZVvvvvvxxvxxvvvg55nSVvvvvg55bKKSSZZVvvvvvvcxhhhvvvvvhhxg55AKSSvVZZvvvvvvxxvu@",
"8Mmmmnnnnnnnnnnnnnld8MmmmzznM8NnGGmmmmmmmnnnnnnnnznnnnnnnnM8NHFmmmnnnnnnznnnnns3",
"BBBBBBBBBBBBBBBBBBBBBBBBBBBBBBBBBBBBBBBBBBBBBBBBBBBBBBBBBBBBNBBBBBBBBBBBBBBBBBN8"
};
