/* XPM */
static char *result[] = {
/* columns rows colors chars-per-pixel */
"80 80 207 2 ",
"   c gray12",
".  c #202020",
"X  c gray13",
"o  c #222222",
"O  c #232323",
"+  c gray14",
"@  c #252525",
"#  c gray15",
"$  c #272727",
"%  c #282828",
"&  c gray16",
"*  c #2A2A2A",
"=  c gray17",
"-  c #2C2C2C",
";  c #2D2D2D",
":  c gray18",
">  c #2F2F2F",
",  c gray19",
"<  c #313131",
"1  c #323232",
"2  c gray20",
"3  c #343434",
"4  c #353535",
"5  c gray21",
"6  c #373737",
"7  c gray22",
"8  c #393939",
"9  c #3A3A3A",
"0  c gray23",
"q  c #3C3C3C",
"w  c gray24",
"e  c #3E3E3E",
"r  c #3F3F3F",
"t  c gray25",
"y  c #414141",
"u  c gray26",
"i  c #434343",
"p  c #444444",
"a  c gray27",
"s  c #464646",
"d  c gray28",
"f  c #484848",
"g  c #494949",
"h  c gray29",
"j  c #4B4B4B",
"k  c #4C4C4C",
"l  c gray30",
"z  c #4E4E4E",
"x  c gray31",
"c  c #505050",
"v  c #515151",
"b  c gray32",
"n  c #535353",
"m  c gray33",
"M  c #555555",
"N  c #565656",
"B  c gray34",
"V  c #585858",
"C  c gray35",
"Z  c #5A5A5A",
"A  c #5B5B5B",
"S  c gray36",
"D  c #5D5D5D",
"F  c gray37",
"G  c #5F5F5F",
"H  c #606060",
"J  c gray38",
"K  c #626262",
"L  c gray39",
"P  c #646464",
"I  c #656565",
"U  c gray40",
"Y  c #676767",
"T  c #686868",
"R  c DimGray",
"E  c #6A6A6A",
"W  c gray42",
"Q  c #6C6C6C",
"!  c #6D6D6D",
"~  c gray43",
"^  c #6F6F6F",
"/  c gray44",
"(  c #717171",
")  c #727272",
"_  c gray45",
"`  c #747474",
"'  c gray46",
"]  c #767676",
"[  c #777777",
"{  c gray47",
"}  c #797979",
"|  c gray48",
" . c #7B7B7B",
".. c #7C7C7C",
"X. c gray49",
"o. c #7E7E7E",
"O. c gray50",
"+. c #808080",
"@. c #818181",
"#. c gray51",
"$. c #838383",
"%. c #848484",
"&. c gray52",
"*. c #868686",
"=. c gray53",
"-. c #888888",
";. c #898989",
":. c gray54",
">. c #8B8B8B",
",. c gray55",
"<. c #8D8D8D",
"1. c #8E8E8E",
"2. c gray56",
"3. c #909090",
"4. c gray57",
"5. c #929292",
"6. c #939393",
"7. c gray58",
"8. c #959595",
"9. c gray59",
"0. c #979797",
"q. c #989898",
"w. c gray60",
"e. c #9A9A9A",
"r. c #9B9B9B",
"t. c gray61",
"y. c #9D9D9D",
"u. c gray62",
"i. c #9F9F9F",
"p. c #A0A0A0",
"a. c gray63",
"s. c #A2A2A2",
"d. c gray64",
"f. c #A4A4A4",
"g. c #A5A5A5",
"h. c gray65",
"j. c #A7A7A7",
"k. c gray66",
"l. c #A9A9A9",
"z. c #AAAAAA",
"x. c gray67",
"c. c #ACACAC",
"v. c gray68",
"b. c #AEAEAE",
"n. c #AFAFAF",
"m. c gray69",
"M. c #B1B1B1",
"N. c #B2B2B2",
"B. c gray70",
"V. c #B4B4B4",
"C. c gray71",
"Z. c #B6B6B6",
"A. c #B7B7B7",
"S. c gray72",
"D. c #B9B9B9",
"F. c gray73",
"G. c #BBBBBB",
"H. c #BCBCBC",
"J. c gray74",
"K. c gray",
"L. c gray75",
"P. c #C0C0C0",
"I. c #C1C1C1",
"U. c gray76",
"Y. c #C3C3C3",
"T. c gray77",
"R. c #C5C5C5",
"E. c #C6C6C6",
"W. c gray78",
"Q. c #C8C8C8",
"!. c gray79",
"~. c #CACACA",
"^. c #CBCBCB",
"/. c gray80",
"(. c #CDCDCD",
"). c #CECECE",
"_. c gray81",
"`. c #D0D0D0",
"'. c gray82",
"]. c #D2D2D2",
"[. c LightGray",
"{. c gray83",
"}. c #D5D5D5",
"|. c gray84",
" X c #D7D7D7",
".X c #D8D8D8",
"XX c gray85",
"oX c #DADADA",
"OX c gray86",
"+X c gainsboro",
"@X c #DDDDDD",
"#X c gray87",
"$X c #DFDFDF",
"%X c gray88",
"&X c #E1E1E1",
"*X c #E2E2E2",
"=X c gray89",
"-X c #E4E4E4",
";X c gray90",
":X c #E6E6E6",
">X c #E7E7E7",
",X c gray91",
"<X c #E9E9E9",
"1X c #EAEAEA",
"2X c gray92",
"3X c #ECECEC",
"4X c gray93",
/* pixels */
"  1 : # 8 o 1 : # 8 o 1 : # 8 o 1 : # 8 o 1 : # 8 o 1 : # 8 o 1 : # 8 o 1 : # 8 o 1 : # 8 o 1 : # 8 o 1 : # 8 o 1 : # 8 o 1 : # 8 o 1 : # 8 o 1 : # 8 o 1 : # 0 ",
"a g f s f a d d s f a d i N d.d.l.j.d.d.d.d.d.g.x.f.d.d.d.d.d.l.j.%.% , Z ` $.3.w.r.r.t.s.7.u.0.,.w.#.) A e % 7 t r q u 0 t r q u 0 t i p f a d d s f a d d s f ",
"M M M m v N b b m v N b l ! XXXX{.}.{.E.|.{.}. X[..X{._.(.[..X{.E.4.. 6 Q e.S.Z.M.Z.N.c.m.x.n.z.d.g.z.X.A e X q v H W E I R W W E K A Z V j z k l x j z k l x j ",
"K P K G K P K H G H k x z ! #X'.!.!.Q.K.~.).`./.Y.).`.R.H./.].I.a.E . 6 _ j.T.M.6.s.e.:.8.<.5.5.1.1.u.E d 3 . 6 K =.p.s.r.p.a.p.a.<.@. ./ V N V Z A V N V Z A C ",
"6.6.1.:.6.4.3.>.*.=.- u x ^ @X~.E.K.H.(.D.L.T.I.A.Y.R.K.C.A.(.s.{ z . 6 *.F.W.j.5.p.u.0.k.:.i.u.8.h.*.P h 3 . 6 ` c.|.#X+X@X.X{.OXK.D.V.j.5.:.2.5.5.5.;.2.5.5.6.",
"~.~.!.!.Q.C.z.t.>.o.= a x ! #X[.D.v.l.s.x.y.p.b.c.b.b.j.s.c.n.<.W d . 6 [ f.m.5.2.:.8.k.z.h.l.e.-.3.{ A s 3 . 6 ! x.@X+XP.R.Y.I.{.XXoXXX}.^.].(.R.U.~.!.~.R.U.~.",
"A.A.A.A.Z.h.k.q.o.) * i z ^ >XR.l.f.l.h.z.f.a.s.l.e.f.t.5.x.x.#.L s . 6 b @.h.3.i.i.0.4.q.u.e.e.7.` K N d 3 . 6 ) c.'.U.M.f.h.c.g.S.G.Z.v.f.j.N.v.h.C.i.b.v.d.c.",
"M.j.d.d.d.d.u.1.{ E & t j ( 3X~.v.y.t.z.u.h.a.q.s.9.u.0.1.y.l.>.R p . 6 i T 5.2.9.f.t.1.y.s.4.0.t.Q l d y 3 . 6 / c.`.C.p.y.e.9.8.9.r.w.0.r.>.9.w.0.t.0.i.e.5.r.",
"A.h.e.q.a.a.9.%./ J $ 9 d ( 4X[.M.q.2.d.0.f.p.6.0.6.9.7.3.9.s.<.! p . 6 i V ] 1.<.a.p.9.f.f.2.9.t.! y 0 0 3 . 6 ~ c.{.N.w.y.9.>.5.<.3.1.3.s.2.,.7.t.9.s.q.7.0.r.",
"C.b.e.4.M.:.5.o.A b @ < r / 1X~.a.8.q.5.g.z.d.0.1.o.;.2.8.j.6.^ A f . 4 u d V ,.f.g.y.5.;.;.;.8.8.I t 8 8 2 o 6 _ M.].v.l.3.1.5.o.f.y.,.@.3.j.3.7.k.h.6.$.3.f.e.",
"u.j.k.a.7.0.#.L h g + X 3 E ~.G.c.s.u.g.>.p.i.5.q.%.5.7.2.6.f...G s   o e l v n | Z f s a a a d d t 0 * o $ 6 9 L f.@X{.r.i.q.&.$.w.$.&.8.3.j.9.2.1.$.s.g.5.O.3.",
"5.9.7.2.1.@.Y n d a + - 0 L Z..XF.f.i.l.2.6.6.2.5.,.3.<.<.a.4.Q P Z     4 p d r k y 0 0 0 0 0 1 - 8 * X   % i i x :.).~.9.8.5.>.,.w.5.6.8.=.8.u.w.5.t.l.q.6.9.2.",
"@.o.....O.I m f y e O % 8 F a..XN.i.a.t.3.-.;.2.2.r.2.2.q.t.0.( P Z - . 1 t p 9 : ; ; ; ; ; ; # # 8 o % # & g k f O.Y.Z.7.q.7.1.t.9.3.4.1. ...&.@.| &.-.{  .%.[ ",
"W Y U T U c p 9 3 1 X O 3 V ,./.z.e.y.4.>.O.@.<.0.f.3.4.r.>.p...P n 8 o 1 t p q - * : 3 5 9 r t p M p l a 7 d c j X.G.s.;.8.1.$.9.=... .| E I H S C C G A A D Z ",
"x b k p p p =     .   1 w k [ '.H.e.;.q.+...X.=.j.t.6.:.+.X.1.{ R Z 8 o 1 t d h c v K  .#.5.g.h.s.v.z.y.*.L 9 k k } z.:.^ ^ Q L F P Z m v v v g d f p g s a s f ",
"@ @ @ + + + < - @ 4 o 1 p x M /./.x.1.3.<.6.0.6.-.2.p.7.+.1.f.6.( k 8 o 1 w j / q.i.m.!.[.%X{.(./.~.d.o.I g @ k h T :.^ T L S n l j g p e e e q q 5 @ 8 = : 5 + ",
"  - & O < X @ - > % , 7 p l z c.!.B.6.p.:.&.>.8.y.3.2.3.3.2.2.@.T h 8 o @ , n r.m.E.`._.I.k.M.n.l.V.3.{ S 8 X e r f b g f d p y r e e w 5 $ $ $ $ @   # X o @   ",
"; 5 3 , 9 : ; 2 6 ; 8 0 u k z 5.K.S.r.0.0.1.:.>.5.2.%.-.0.r.>.! Z l 8 o % 3 V v.W.^.R.S.a.,.9.7.1.r.>.! c 3 . 6 < ; , 9 : ; 2 6 ; ; 5 3 ; > > ; ; ; ; ; ; ; ; ; ",
"y r w 0 0 0 0 0 0 9 3 7 u k l +.B.Z.t.1.d.t.6.:.%.6.%.=.q.p.0.I M N q o ; 9 S b.+XU.v.u.,.7.4.1.,.,.7.I s 3 . 6 : * 1 r > ; , < & & 6 3 > y y e e e e e e e w q ",
"B b g t t t t t t r * 2 i l h W x.z.2.l.t.5.e.h.r.g.1.7.i.*.f.Q F U a +   1 L n.:XK.y.,.=.h.0.e.a.*.f.! f 3 . 6 p v S A F C r = f l k k l x k k k k j k k k h p ",
"5.4.>.=.1.&.>.:.=.1.>.i O < m l p.J.x.t.5.-.2.t.q.o.=.2.4.<.4.` J V z @   1 L n.:Xk.>.7.h.z.3.8.d.<.4.P s 3 . 6 V O.x./.T.{ l a n / =.3.1.=.2.3.3.<.*.2.3.3.3.2.",
"I.G.G.K.P.A.J.A.l.d.%.k = ; N g %.z.v.6.p.5.-.-.4.=.*.5.y.<.} O.] F h +   1 L v.).n.p.i.0.3.w.r.e.p.:.P g 3 . 6 | x.Q.(.F.Z 9 c ) j.G.R.Q.E.!.T.R.Q.E.!.T.R.W.I.",
"L.C.M.V.J.v.S.S.j.;.] l > - m f ~ 5.h.t.0.r.q.3.:.e.&.;.8. .K ] ) Z f +   1 L c.Y.B.f.8... .-.=.X.X.^ S g 3 . 6 8.R.Q.Z.r.p < C 2.T.'._.^.~.R.R.W.^.~.R.R.W.!.R.",
"x.y.8.9.d.0.y.s.8.W ) k : = x h F o.y.a.$.6.t.7.+.5.{ [ O.L S U G k w O   , G k.Z.g.9.*.E I I K Z l x l a 3 X r k./.D.s.;.r < F u.).(.L.B.n.x.c.m.N.c.j.l.c.m.m.",
"x.0.6.0.5.g.3.:.=.W / j : & d v h E 7.;.` ( ! W ~ N b G U z R C h 0       * v w.1.{ | @.I r 8 8 8 8 8 8 8 1 O B A.Q.f.3.1.y , S i.}.G.z.g.r.h.0.e.s.3.0.;.<.e.w.",
"x.0.2.9.g.>.t.h.q.R S p : & d v h B T Z Z V V N k g f a 9 @ % # + o       . e 1.} b i p r # o o o o o o o X O B A.Q.z.g.-.e 1 F u.(.A.p.7.w.:.7.9.7.0...O.-.<.*.",
"x.0.0.i.q.y.7.6.<.~ M u : & d v h r 7 y 1 q 9 > = = = & @                 $ 0 M C p 1 $ $ .     O < X   $ ; @ _ I.Q.x.l.2.t < Z 9.Y.s.0.p.r.u.9.w.u.5.2.*.>.9.6.",
"y.y.9.,.*.e.2.4.4.! N u : $ u x x i 5 8 o % #             . 3 4 4 4 5 4 4 9 h I ! T I I P V B B V C r $ - e g 0./.Q.h.8.=.e < C ,.L.h.0.q.r.t.0.8.9.7.,.#.-.8.8.",
"2.r.1.{ ..,.6.e.6.T M u : # w B ^ ' ! K x g a u y 0 1 = $ - x N S L U U T T ] d.d.d.z.C.Z.g.d.p.9.+.H < - g ( Z.'.Y.p.>. .0 < V =.G.N.t.,.0.9.8.4.2.9.o. .$.2.2.",
"2.=.%.$.O.,.p.q...P j e : # r o.U.+XOXXX`.W.D.z.j.5.Q z r k P { 7.n.b.S.U.E.^.+X@X+X.X{.+X@X+X[.G.7.Q 4 = j #.].(.N.u.g.} 8 , M %.M.v.d.q.3.g.2.7.s.<.+...&.3.2.",
"2.<.q.g.s.-.1.3.#.F l r : # i A.!.L.x.w.p.p.g.f.5.q.A a k l ) n.}.=X.XXX/.P.D.H.Q.P.I.R.H.Q.P.P.M.^ S < = x 4.{.J.g.q.3./ 6 1 n _ F.r.9.s.2.5.9.8.2.*.p.7.q.a.2.",
"0.u.e.4.q.y.1.@.) M u q : # a W.S.a.0.q.f.h.i.0.q.f.x 9 c x -.T. XQ.l.S.d.s.c.d.w.j.c.z.b.l.i.e.,.U x ; = c 7.#XK.t.3.y.I 1 1 k B 9.%.[ _ T U T ! ) / X.+.>.6.*.",
"@.$.o.' { *.` P B s q 0 : # p R.B.p.u.s.q.f.u.7.a.-.e 3 l z 3._.].m.9.k.6.<.0.s.q.r.9.5.y.s.4.2.;.D h = = z 2.*XP.s.q.q.G , 3 f 5 F A M b z l l b V B V K Q ( W ",
"K S S S N A v s 9 3 3 3 * # p U.M.g.l.s.2.a.u.6.r.Y 2 1 h k 3.{./.p.i.d.0.<.<.a.d.5.-.:.9.s.2.6.3.m g = = l ,.&XD.g.f.>.S > 5 f # 1 3 6 w w w w e r w w f z c c ",
"x h s y 8 8 8 ;   .   . X % a ~.a.8.d.3.j.l.u.>.} K 2 < g k 3.{.P.<.j.6.9.p.i.$.<.@.$.8.h.5.3.2.O.z j - = x 7.*Xh.8.d.:.B : 6 c 8 + . . . . . .     .   < 8 q p ",
"@ + + O o o o . @ 4 o 8 a a x ^.A.s.9.*.h.e.r.t.} K 2 - r k 3.{.T.1.6.f.3.>.,.X.,.@.$.<.-.1.i.t.O.z j - = l >.&XH.k.a.@.A , 6 c 9 6 6 6 6 6 6 6 - @ 4 o X o o + ",
"9 g c v m T ( / Q Q Q ' P y 5 Q.G.0.%.6.0.u.e.>.o.T y ; > j ;.].(.y.2.2.,.*.$.-.#.*.6.w.o.,.2.0.1.v g = = x 4.*XB.p.j.w.A : 6 b u e y a g j g k g p j s 7 1 1 1 ",
"B ^ $.7.g.n.D.A.n.x.x.a.@.l = W.G.u.2.1.*.8.e.5.@.E f : & j *.^._.z.7.:.9.5.>.e. .+.2.7...,.7.0.*.n i & = c 7.|.k.8.p.g.Z : 3 A | ,.<.-.o.^ Z B b l l c s y u d ",
"Y =.j.T..X'.[._.!.Q.J.m.,.m = ~.A.g.p.>.X.-.r.s.*.Q j , & k @.U.(.V.y.1.t.0.2.a.| } *.3.@.6.y.6.[ n e $ = c 6.(.z.5.7.u.Z : 1 U D.E.Y.J.N.p.$.{ ) ! ! ^ H x d n ",
"Y 0.J.).R.R.D.n.z.k.y.f. .8 - }.v.8.i.h.$.:.r.g.q.( b 4 & k ) Z.(.I.k.:.,.$. .2.o.X.3.a.2.g.3.$.' z w $ = c 6.{.D.u.3.>.Z > 1 / XX2.:.i.L.OXXX].{.OXXXXXg.R t b ",
"Y C.^.A.b.b.8.q.f.6.h.5. .C - }.V.p.d.6.s.h.w.3.g.) m 6 # e v f.'._.z.h.y.6.5.g.*.e.8.+.o.2.i.<.T m e $ - b 6.^.j.r.a.>.B : 1 / XX0.=.9.v.n.5.7.s.x.q.2.=.P t x ",
"Y B.Q.M.u.4.w.r.e.a.4.w.>.F - }.C.8.4.q.k.y.e.e.<.! B 9 X * z 8.^.oXx.x.p.8.4.9.+.2.>. .X.y.8.@.Y h w $ , C 6.~.M.h.a.$.Z > < ! OXl.i.0.4.q.y.a.e.7.p.1.` M e g ",
"Y C.W.z.8.9.r.y.p.k.%.y.:.c = ).S.y.e.s.y.6.8.r.7.! B 0 o > z &.P.$Xm.x.r.q.q.-.&.3.>.%.6.r.q.#.H a , ; 6 B 6.~.N.p.r.5.A > < W `.m.a.e.q.t.0.r.e.q.y.y.) x e d ",
"Y D.Q.g.9.s.8.w.j.g.>.q.o.p = W.J.j.a.g.<.5.9.e.s.! B 0 + 4 h ` m.OXZ.c.0.9.w.;.>.7.4.2.s.4.y.&.V y O ; 9 M 6.~.z.0.8.2.C : 1 E R.b.w.t.l.s.2.,.9.p.0.f.` z e d ",
"Y S.Q.x.j.6.3.7.e.t.h.3.( f * R.T.u.$.w.@.r.l.g.9.U C e   X a G 9.^.S.c.0.=.&.q.-.,.7.q.1.1.<.{ M 8 o . 2 A 4.Q.s.q.2.z m < 1 R Y.b.i.a.f.4.h.3.;.8.j.y.Q h w s ",
"Y N.E.c.6.f.j.y.9.h.,.t.@.s & V.}.B.-.r.d.q.5.5.<.I C e   X a b @.U. Xm.3.5.i.4.d.9.e.i.&.<.] J z 8 o > e M +.l.<.~ n w e 8 0 S b.x.q.t.h.w.6.i.r.<.:.f./ h 0 q ",
"Y Z.^.M.s.p.e.t.i.q.y.w.{ i % k.{.V.=.f.5.2.2.6.u.~ S e   X 0 j ( g.I.b.8.:.%._ ] W I L S N k s t 8 o 1 w g J F n f r 0 w y 6 r #.~ J P ! W U ! Q P K ^ D g 0 0 ",
"Y D.~.c.y.s.u.e.q.t.7.w. .p $ 0.~.Z.<.6.9.r.7.1.w.( D e   . 6 h S } s.y.#./ P N z r 5 2 3 : ; ; ; - . 1 e d v i y u a d h k a e d 8 3 4 8 9 8 9 9 8 8 9 8 2 , 0 ",
"Y A.W.h.3.u.g.r.5.s.:.q.O.s # %.I.J.q.&.h.f.8.:.6.^ A w   . < f l n } _ G c s q 4 @ o +   @ X   . @   1 t g x j f g z v b c v f & & & $ # # # # # # # # # # = 0 ",
"Y M.W.v.3.*.6.p.d.5.h.3.( f + ! L.Q.g.r.j.2.;.9.f.^ N 9     . t j p 9 + 1 > . . . X ; 4 O 7 & X % 9 @ 2 t h n N z h j l h h h j l h h a r r r r r r r r e q 0 q ",
"Y S./.B.j.h.3.3.i.h.8.i.@.s o n L.R.7.e.6.2.q.i.&.W V 0   . 3 u d s p 8 8 8 6 6 6 y a a a r a d a a a a s h N n E ` ` ` ` ` ` ` ` ` ` _ _ _ _ _ _ _ _ _ ~ N r k ",
"Y D.!.l.0.0.t.8.5.l.5.%.Q f X s H.(.u.5.-.#.>.w.r./ S w     # 8 l H E Y Y Y Y Y Y E W W W T W Q W W [ { {  .*.1.y.p.p.b.g.x.z.j.b.g.f.l.c.f.v.j.l.c.f.v.;.D t x ",
"Y M.T.c.y.y.y.e.q.y.y.( z 3 X a G.(.u.2.9.:.;.4.7.~ S p &     2 n X.p.e.u.y.r.p.e.u.a.i.w.p.r.t.i.e.k.g.l.V.J.T.).`.`.oX{..X X}.oX{.[.|.XX].(.^.^.^.Y.b.$.n 4 l ",
"Y x.I.N.f.z.0.r.g.9.i.E 0 . % s G.Q.0.9.y.9.2.,.:.W Z g 3     ; n 1.E.H.~.^.Q.`.E.(._.~.U._.Q.Q.^.R._.Q.).+X*X$X>X<X,X>X&X&X&X*X-X&X#X$X*X=X_.].]._.W.5.^ a * k ",
"Y m.R.v.5.h.q.r.k.h.-.P e # 0 e A.R.0.k.@.4.4.<.g.~ N s 3       d 1.W.W.%X2X3X2X3X2X;X@X+X<X3X;X$X2X3X2X2X2X<X@XOX}._.(.A.C.C.S.T.C.c.b.S.T.C.C.H.P.N.@.J r - l ",
"Y p.S.B.h.8.p.w.:.5.1.L 9 # 0 p m.W.k.k.=.t.t.1.2.U C h 3       d 1.W.W.P.T.Q.K.~.U.Y.Y.N.H.W.P.V.K.~.U.K.G.B.M.j.s.i.0.7.f.a.e.c.1.2.6.e.c.1.a.s.r.k.` D g 8 w ",
"n i.v.7.q.p.8.&.[ ]  .F 0 # 0 a l.A.4.q.y.7.0.y.,.Q S h 3       y +.J.{.I.v.i.r.q.e.y.u.w.x.i.p.x.v.s.y.i.g.x.x.j.y.1.#.7.4.0.f.l.9.:.5.i.q.y.j.s.0.7./ A t - 0 ",
"g e.v.q.y.s.4.} L G K s ; # w a y.m.6.:.e.q.w.q.=.) D g 3       6 ( I.OXY.g.2.1.;.9.9.3.8.t.6.r.h.9.3.6.r.g.l.w.i.e.1.>.6.,.<.7.0.e.5.8.y.t.0.f.a.0.w.( A i , 0 ",
"d ;.f.i.y.,.$.~ N n n > o - e p 1.c.p.,.,.t.e.:...( S f 3       - F T.OXQ.c.9.8.<.t.e.4.0.>.6.r.t.<.1.0.y.d.k.<.2.2.2.0.9.2.*.$.<.9.7.1.2.a.&.r.t.7.p._ D d 4 0 ",
"d T ] ' _ B n m M n n > = 0 0 r X.q.r.d.&.-.,.$.E U V f 3         s S.XX|.P.l.h.;.,.2.3.<.o.:.>.,.h.4.9.4.<.j.y.*.+.=.3.g.3.;.8.j.4.@.{  .<.+.4.7.<.,.' D q # 0 ",
"d p 7 * * # d M n n N , = 0 r f ~ [ Q T E W T I U B n f 3       & m n._.[.Z.2.;.s.9.w.u.&.>.i.t.:.+.X.4.w.7.:.f.8.0.p.2.5.i.0.-.4.+.=.,.;.*.p.9.&.| #.^ D e # 0 ",
"x z g t 8 2 < > > > , < 5 q r r h k f s f f d s f i u r 3       o i r.^.R.N.t.,.9.u.e.6.t.%.3.3.;.2.X.4.0.5.5.>.e.e.2.1.#.3.5.,.1.#.0.w.:.O.7.4.=.X...! D e # 0 ",
"l x x j s y 7 3 < - . % 2 w p q 0 3 ; ; ; ; ; ; ; ; ; ; &       @ p >.M.t.3.>.+.X.;.*.O.>.5.3.5.e.p.$.1.1.=.1.*.8.2.$.1.*.8.7.1.r.>.9.y.8.+.<.2.,.;.;.^ D e # 0 ",
"d b Z H H H K F N z 3 - 2 u j w 0 :     @ X   . @     o +   @ X = h [ %.W J L F F F J J A 1.,.3.t.y.;.-.$...@.-.:.$.o.:.:.q.4.-.y.,.:.6.0.@.-.:.:.,.3.^ A w # 0 ",
"d Q 5.c.v.b.v.s.7.4.( C v b M y w < o O 6 % . $ 8 + . - 3 o 6 % - y b f r 0 3 o 6 % - 3 O l Y ! ! } ;.o.{ { { { { { { { { { { { { { { { { { { { { { [ T m 8 $ 0 ",
"d =.N.E.). X'.'.}.].N.d.i.w.&.R D M l p q 7 6 7 9 6 6 8 9 6 9 7 9 p M f a t 9 6 9 7 8 9 5 % u b N V D C C Z V A C C Z V V V C Z V A C V V A V Z C V B M 3 ; 7 0 ",
"d >.F.!.A.F.x.M.Q.|.[._.).R.l.w.7.5.2.,.-.-.-.&...' ` ( W Y Y G A S H x c j i i i r t y 9 2 : 5 w , y 4 7 e , y 4 7 e , t 4 > , > , > > > , > , > > > > + = 0 w ",
"d >.L.(.x.x.a.k.D.K.S.P.W.^.~.R.R.U.P.T.L.Y.U.K.H.A.A.V.v.a.h.y.7.<.-.o.O.X.} [ Y x f h t 0 < 2 6 ; 8 < 2 6 ; 8 $ @ ; ; ; ; # o - . % # o - . % # o ; ; ; 4 u a ",
"d >.I.].z.s.j.l.g.u.0.a.l.B.E.`.^.Q.!.~.!.~.~.^.'.!.).).Q.P.W.U.J.D.C.A.C.C.B.x.-.C h z f t e e w 0 0 0 6 4 0 0 - # = 8 % 3 < = 8 % 3 < = 8 % 3 < = 0 0 w u g l ",
"d >.I.`.k.:.i.9...+.d.u.8.:.O.g.2.6.d.5.g.8.w.l.k.=.y.y.8.l.z.l.C.W._.oX{.`.!.m.=.x e f z j k z l p y r 1 % 0 0 q q q q 0 0 0 0 0 0 0 0 0 0 0 0 0 0 q r a g l n ",
"d >.S.U.z.h.l.y.5.d.7.4.2.4.q.k.2.;.0.g.&.} #.q.k.@.>.,.-.7.j.5.q.k.w.b.m.m.f.@.! 8 ; y z j %.v.Y.E.9. .G s f a k c c x s a u t a a a u t a a t y a a k b n b n ",
"d >.A.P.l.5.s.q.$.:.8.u.9.1.h.z.e.<.=.>.w.$.#.<.:.3.;.4.e.3.j.8.w.a.;.h.x.h.6.Q A < = e g f f.T.S.H.W.U.D.b.j.9.Y n v v >.h.b.x.j.b.n.b.x.j.j.i.8.;.O.^ V l k n ",
"d >.k.u.=.` @...~ (  .&.+.} &.-.+.} ` ) #.[ _ ' (  .[ X.%.{ *...o.$.) *.*.$.{ F m 7 ; 1 y s x.W.n.v.W.E.W.!.T.S.] B V R K.I.P.Y.K.S.P.H.V.K.S.S.c.u.d.h.$.B 0 n ",
"d *.5.` A N Z C B A N Z S Z N A B V S A N Z C B A N Z S Z N A B V Z N A B V C x l t : + 4 a s.I.N.b.C.c.f.f.n.z.[ Z H 1.!.z.p.k.p.0.f.y.5.p.i.s.y.q.d.T.y.Z - m ",
"d ` { V 8 8 8 8 8 8 8 8 8 8 8 8 8 8 8 8 8 8 8 8 8 8 8 8 8 8 8 8 8 8 8 8 8 8 8 8 8 8 ;   X a 3.z.j.n.m.i.o.! 9.%.~ V L S.x.0.r.p.=.h.l.l.p.=.g.0.r.a.*.f.! q ; B ",
"d a 7 # o o o o o o o o o o o o o o o o o o o o o o o o o o o o o o o o o o o o o o .   X f j z v j C T Y K ! E L N ~ |.f.e.r.i.h.z.e.0.i.g.u.e.a.d.<.4.P 9 ; B ",
"x f w 1 1 1 @ $ ;     - &   . > @   O < X - &   . > @   O < X   $ ;     - &   . > @ $ ; X r d k k 0 t 8 3 2 4 4 2 7 x X.~ E R E ~ ~ T T Q W R W ! ! T L C w - m ",
"n v j a s y 6 8 e 4 4 w 0 4 4 9 < ; , 9 : 5 3 ; ; 8 < ; , 9 : ; 2 6 ; ; 5 3 ; ; 8 < 2 6 : 0 g b b a s 4 ; ; ; ; ; 2 t v m y 8 8 8 8 8 8 9 6 7 9 9 8 9 6 8 : - M ",
"l x l h k a p p p d d p a d s q 0 0 0 0 0 0 0 0 0 0 0 0 0 0 0 0 0 0 0 0 0 0 0 0 0 0 0 0 0 0 a k z h k t 0 0 0 0 0 0 e h k 1 # # # # # # # # # # # # # # # # , c ",
"0 0 0 0 0 0 0 0 0 0 0 0 0 0 0 0 0 0 0 0 0 0 0 0 0 0 0 0 0 0 0 0 0 0 0 0 0 0 0 0 0 0 0 0 0 0 0 0 0 0 0 0 0 0 0 0 0 0 0 0 0 0 0 0 0 0 0 0 0 0 0 0 0 0 0 0 0 0 0 0 "
};
