/* XPM */
static char *result[] = {
/* columns rows colors chars-per-pixel */
"80 80 243 2 ",
"   c #3E3E01",
".  c #32320E",
"X  c #393909",
"o  c #2B2B16",
"O  c #25251E",
"+  c #393816",
"@  c #232323",
"#  c #2D2D23",
"$  c #2B2B2B",
"%  c #38382B",
"&  c #333333",
"*  c #3C3C34",
"=  c #3A3A3A",
"-  c #403F2E",
";  c #454406",
":  c #4A4708",
">  c #5A5708",
",  c #484616",
"<  c #4B4B1E",
"1  c #514E10",
"2  c #5B5A16",
"3  c #625E0B",
"4  c #696605",
"5  c #6E6A06",
"6  c #716D02",
"7  c #716E09",
"8  c #757202",
"9  c #7A7706",
"0  c #7C7A01",
"q  c #696718",
"w  c #716E1A",
"e  c #7C7C12",
"r  c #767318",
"t  c #7E7D1B",
"y  c #474627",
"u  c #504E27",
"i  c #54532D",
"p  c #5A5828",
"a  c #454538",
"s  c #57563A",
"d  c #605D2E",
"f  c #696829",
"g  c #747324",
"h  c #79782A",
"j  c #636236",
"k  c #696736",
"l  c #656439",
"z  c #6B6A3B",
"x  c #706E37",
"c  c #787735",
"v  c #444444",
"b  c #4B4B43",
"n  c #4B4B4B",
"m  c #504F42",
"M  c #54544B",
"N  c #5C5B48",
"B  c #535353",
"V  c #5C5C54",
"C  c #5B5B5B",
"Z  c #605F4D",
"A  c #646443",
"S  c #65644B",
"D  c #6B6B48",
"F  c #706E4A",
"G  c #757445",
"H  c #7A7844",
"J  c #75744C",
"K  c #7B7A4D",
"L  c #646355",
"P  c #6C6B56",
"I  c #63635D",
"U  c #747353",
"Y  c #7A7958",
"T  c #646464",
"R  c #6D6D63",
"E  c #6B6B6B",
"W  c #706F67",
"Q  c #747364",
"!  c #7C7B65",
"~  c #73736B",
"^  c #7C7B6B",
"/  c #737373",
"(  c #7C7C73",
")  c #7C7C7C",
"_  c #827E01",
"`  c #827D15",
"'  c #817D2B",
"]  c #807F45",
"[  c #858301",
"{  c #8B8A01",
"}  c #85840A",
"|  c #8A8708",
" . c #908D04",
".. c #949301",
"X. c #9A9601",
"o. c #9D9B01",
"O. c #99960C",
"+. c #848313",
"@. c #8C8B13",
"#. c #8A8718",
"$. c #928C11",
"%. c #9C9A14",
"&. c #969418",
"*. c #9B951E",
"=. c #A39D03",
"-. c #A39E0D",
";. c #A39D1A",
":. c #A5A101",
">. c #AAA501",
",. c #ADA900",
"<. c #A3A20C",
"1. c #ABA50D",
"2. c #B2AB00",
"3. c #B5AD0C",
"4. c #B4B000",
"5. c #BBB501",
"6. c #BDB608",
"7. c #A9A415",
"8. c #B2AC14",
"9. c #B2AC1D",
"0. c #BBB517",
"q. c #858522",
"w. c #8A8826",
"e. c #8D8C2B",
"r. c #908F24",
"t. c #999923",
"y. c #999829",
"u. c #898936",
"i. c #83833A",
"p. c #918E38",
"a. c #979639",
"s. c #A19C2C",
"d. c #A29D39",
"f. c #AAA628",
"g. c #B3AD2A",
"h. c #BBB423",
"j. c #B9B42A",
"k. c #A9A539",
"l. c #B3AD36",
"z. c #B8B33A",
"x. c #C4BC01",
"c. c #C2BB0B",
"v. c #C4BD12",
"b. c #C4BD1A",
"n. c #C2BB25",
"m. c #C2BB3E",
"M. c #CBC300",
"N. c #C9C107",
"B. c #D5CB01",
"V. c #D8CD0D",
"C. c #DED301",
"Z. c #C7C014",
"A. c #CAC217",
"S. c #D8CE17",
"D. c #DCD216",
"F. c #E2D601",
"G. c #E2D71A",
"H. c #CFC72D",
"J. c #E7E027",
"K. c #878746",
"L. c #989649",
"P. c #888758",
"I. c #918F55",
"U. c #949353",
"Y. c #9C9A54",
"T. c #98965A",
"R. c #A39F49",
"E. c #A09D5B",
"W. c #ABA747",
"Q. c #B2AE49",
"!. c #BBB646",
"~. c #A9A657",
"^. c #B1AD57",
"/. c #B9B559",
"(. c #848363",
"). c #8D8C64",
"_. c #87866A",
"`. c #8C8B6B",
"'. c #908F6E",
"]. c #999767",
"[. c #828275",
"{. c #8C8B73",
"}. c #84847A",
"|. c #8B8B7C",
" X c #999876",
".X c #93927A",
"XX c #A09D62",
"oX c #A29F73",
"OX c #AAA866",
"+X c #B1AE65",
"@X c #B9B566",
"#X c #A7A578",
"$X c #B1AF79",
"%X c #B7B47A",
"&X c #C2BC4C",
"*X c #CBC544",
"=X c #D5CF4C",
"-X c #E5E054",
";X c #C9C66D",
":X c #D0CC71",
">X c #848484",
",X c #8C8C84",
"<X c #8C8C8C",
"1X c #908F83",
"2X c #939386",
"3X c #9B9A86",
"4X c #93938C",
"5X c #9A9A8D",
"6X c #939393",
"7X c #989790",
"8X c #9B9B93",
"9X c #9B9B9B",
"0X c #A09F93",
"qX c #A9A885",
"wX c #A3A28C",
"eX c #B5B488",
"rX c #A4A496",
"tX c #ACAB93",
"yX c #A4A49B",
"uX c #A9A99D",
"iX c #B0AF9C",
"pX c #B7B698",
"aX c #A4A4A3",
"sX c #AAAAA4",
"dX c #ABABAB",
"fX c #B4B3A8",
"gX c #B4B4B4",
"hX c #BDBDB4",
"jX c #BBBBBB",
"kX c #C6C488",
"lX c #D7D483",
"zX c #C6C595",
"xX c #E5E184",
"cX c #CDCCB0",
"vX c #C4C4C4",
"bX c #CBCBC5",
"nX c #CACACA",
"mX c #D6D5C5",
"MX c #D2D2D2",
"NX c #DBDAD4",
"BX c #DBDBDB",
"VX c #E6E5CE",
"CX c #E6E6E6",
/* pixels */
"$ $ $ $ $ $ $ $ $ $ $ $ $ $ $ $ $ $ $ $ $ $ $ $ $ $ $ $ $ $ $ $ $ $ $ $ $ $ $ $ $ $ & $ $ $ $ $ $ $ $ $ $ $ $ $ $ $ $ $ $ $ $ $ $ $ $ $ $ $ $ $ $ $ $ $ $ $ $ $ ",
"v n n v v v n v v n v n v C aXp.O.O.O.O.O.#XaXaXaXaXaXaX3X} | | U.<X@ & C / <XaXaXaXaXaXyXt.O.O.w.C E E C v @ = v v v = = v = v v = v v v v v n n v n n n n v n ",
"B B B B B B B B B B B B B E MX:XA.5.5.5.6.%XcXcX:X:XcXBXcX/.c.5.!.<X@ & / 9XjXnXgXkXkXpX:X6.4.4.-.x ~ / C = @ = B A g g g g D I T I T C C M n n n M n n n n n n ",
"T T T T T T T T T T n n B E BXMX!.4.4.4.=.].8X@XM.x.kXnXvXhX0.5.k.E @ & / aXvXdX<XW.k.L.9.X.....| q V B v & @ & S e.:.,.o...u.) <X<X(.K G l M n M k l C C C C C ",
"<X<X<X1X<X6X<X<X<X>X$ v n E BXMX!.,.,.>.8 `.^.M.M.<.eXjXjXhXq.:.e.n @ & >XjXnXaX6X) Y.h.( w 0 0 q B / T v & @ & e 2.B.C.:.9 H 7XgXvXH.N.M.N.P T p.M.N.'.<X<X6X<X",
"nXgXOXl.gXdXdX9X<X>X$ v n E BXMXQ.o.o.{ 8 ).~.5.<.#XsXaX9X4X|.y.' v @ & / dXgX6X<X<X5XtX9XR t 8 q B E C v & @ & e 5.B.2.0 z W <XjXMX*XB.F.B.N C p.M.M.@.(.9XvXbX",
"gXgX+X3.k.^ ) <X) / $ v B E BXnXk.o.[ 9 G ( .XOX#X9XY.].<X) <Xw.g v @ & B ) tXj.y. X9X6X6X/ f q Z T I C n & @ & e 5.M._ z ~ <XeXH.=X~.s.4.>.m C i.>.X.0 j ) aXdX",
"dXaXT.| ' ~ ) ] ) E $ = n E BXnXk.{ 8 7 Q >X6X9X9X9Xy.a.<X) ) P.J b @ = v R  X,...k. X<X9X7XU N I E n v v $ @ & r >.>.5 L )  X*XB.M.U.] { X.s T J h f p M J T.>X",
"gXaX_.k T <X<X<X) T $ = v E BXMX~.w.g g [.9XaX9XaX6Xr.L.6X9X) >X/ v @ & v C ! t.e.t.Y.7XaXaX>X/ / E = = = & @ & 7 [ { q W ) T.0.M.0.).G 0 | m T E T C B T i.t./ ",
"gXgX9X>X<XaX6X) T B @ $ = E BXMXaX>X) ) 6XyXyXaXvX<X' K.9XaX6X<X/ v @ & v C / <XaX6X6X9X>X>X>X6X6XE = = & = $ & q 9 f E >X<X>X).v._.) K 5 4 m T ) ) <X/ ) K t T ",
"9XaXaX6X/ / >XE B v @ $ = / BXvXdX9X<X) 6X!.Q.8X9X<X1X2X<X<XaX6X/ n @ @ = n C / / T C C v v v v v = = & $ $ & = P Q R >X) 9XsX8X[.>X9X2XQ a R ) <X6X<X>X9X2X^ T ",
"6X6X6X6X>X/ E B n v @ $ = E BXBXjX9X>X6X>Xj.0.L.) <X6X<X6X9X6X<X/ v @ @ = n n n n v v = & = & = = = $ @ $ & = & T <X9XaX<XL.T.<X<X>X>X<X>XC E <X6X<X6X<X6X9X6X) ",
") ) ) ) ) T B n v = @ $ = E BXCXgX<X>X6X<Xj.6.&./ 6X6X6X9X9X9X6X/ n $ @ & v v = & $ $ $ $ $ @ $ $ & @ $ & = = = T 6XdX6XU.' K <X0XW.`.<X<XE ) >X<X<X) ) <X>X>X) ",
"E E T E T B v = & $ @ @ & E nXBXaX<X>X4XoXh.4.&./ 9X6X6X9X>X9X<X/ n & @ & = v = & & & & v v v v v C C a - & & = T 6XaX>Xe.l T <X0XZ.K./ / E ) E / ) C T / E C C ",
"B n n v v v $ @ @ @ @ $ = T dXMXjXaX6X[.0.4.:.r./ 6X6X<X>X>X,X( E B & @ $ = v n n M L }.dXdXdXdXgXBXBXL.2 * = = C <XaX<X) E T T ( O.i v B B I B v v n v v n v n ",
"@ $ @ @ @ @ @ $ $ @ $ $ v T 6XMXMXdX<X) .Xy.e.^ >X<X9X6X>X>X&.)./ n & @ & v B E 6X=XJ.-XMXBXMXMXnXMXBX*X..2 = = n / <X/ E T C B n > y = = = = = = = $ & $ & $ $ ",
"$ $ $ @ $ @ $ $ $ $ $ & v C ) dXnXgX<X9X<X'.{.<X9X<X6X6X<X<XK Q T n = @ $ & B 8X=XG.N.g.aXdXgXdXaXgXQ.L.h : $ & v v n n v v v = = % * % & & & $ @ @ @ @ @ @ @ @ ",
"& & & & & & & & & & & = v B I 6XvXgX9X9X9X6X<X>XaX<X>X<X6X6XH S C n & @ $ & C uXJ.5.t.I.9X<X+X&X^.8X%.G j > $ & & & & & & & & & & & & & & & & $ $ $ $ $ $ $ $ $ ",
"= = = & & = & = = = = = v B n ) gXjX9X6X9XqX).! <X6X>X>X8X0X+.l C B = @ @ = I uXA.o.i.>X9X XA.V.z.,X&.l d 2 = = & & = = & = & $ & & & & & = = v = v = = = v = = ",
"B B v v v = v = = = = = v n n T aXdX6XyX9Xj.4.&./ aX6X9XaX>Xw s I T v @ @ = I tXD.o.i.) 2XZ.C.l.>X,X+.j i : = v b M N B B B = $ n n n n n n n n n n n n n n B n ",
"4X4X<X<X<X<X<X<X<X<X<Xn $ & B n 9XjXtX#.,Xy.X.e.9X) >X<X<X>X~ R C B B @ @ $ z D.C.L.( <XyXD.C.l./ ,Xr s b % = v ;.6.<.<.P C n v B / >X6X6X<X<X6X6X6X6X<X<X6X4X<X",
"jX/.l.^.vXvX&Xk.L.) ) v $ $ B n >XdXtX9 R `.P.Y 6X/ / <X9X<X/ ) / I n @ @ & z C.R..X>X>X5X1.o.' / 8X_.L v = = = &.6.>...P v = B / aX/.j.j.z.cX/.OXaXyXz.j.j./.vX",
";Xn.2.7.;X;Xj.=.t T E n $ $ n n E 6X5Xk I >X>X) ) >XE ) 6X) T / / C v @ @ $ A W.|.>X>X{.Q.e.x D E ) / C v = $ = +.=.@.f I = & C 2X@XA.M.0.k.:X0.a.9XuXZ.6.,.f.dX",
"x.2.%.r.2.,.o.[ q B E n $ $ B n C ) <X/ E ) >X) E >XE E ) E C T C n v @ @ $ B >X<X) >X].h.P C C B n n B v & @ = e ..e C C & & C 5XZ.N.c.k.|.Z.,.u.>XrXZ.>...t E ",
"2.X.U.#X2.o.{ 0 q B E v $ $ n B n T 6X6X/ ) / T E E E E T B T B n = @ @ @ @ v aX<X/ ) ) E B = & = & & & & & @ C w...t / C $ & C 8Xb.c.k.>X4X%.O.p.>X5Xv.,...t / ",
"{ ].8X].2.=.0 6 q B B v $ $ v B n C E C C n v = = v = v = $ $ $ @ @ @ @ @ @ v <X) n = v = $ @ @ @ @ @ @ @ @ @ C [.K.q.>XC $ & C 7XrX.X|.<X7X%.K.( >XyXZ.,...q.6X",
" X4X9X#X,.[ f s S / V v $ $ n B n v = = = & $ $ @ @ $ @ @ @ @ @ @ @ @ @ @ @ & B C v & @ $ @ @ @ $ @ @ $ @ $ $ / 6X3X`.9XC $ & C 6XaX9X7X9X8X#X}.<X6X,X$Xf.{ g ) ",
"9X9X6X.Xp.f S E / ) C = $ @ v B n v = $ @ @ @ @ @ @ @ @ @ @ & & & & & & & & v T E E A 3 2 3 2 3 d B v & & & n 9XjXdXaXdXE & $ C <X9X9XqX@X9X6X7X9X9X6XaX].c U >X",
"<XqX X(.( T / ) >XE C = $ $ = C F z j i , * = v v v = $ @ $ n s j k k k l S ) aXaXdXOX:.>.:.:.:.%.P.A % & v / jXMXbXgXgX/ & & C <X<XaX@X&X7X6X9XwX#XaX9X<X>X<X9X",
"<Xg.4.t.) <X<X<X>XT n = $ @ = }.j.M.x.,.O.I.9XgXgXdX) n = n L r.,.M.N.N.3.@XMXCXCXCXlXM.N.M.M.5.>.X.[ + @ n ) MXvXnXnXaX( * $ B [.6XaX9X4X<XuX0X/.H.6X>X9X9X9XdX",
"<Xy.X.e.aX<X<X<X>XT n = $ @ a 8.6.4.2.o.P.) ) >X) >XB n n b @.5.5.7.! 3XwXuXdXaXdXdXE.%.(.<.....X.[ 8 + $ n 6XMXjXdXgXhXH.2 & z S.tX9X9XaX5XH.D.z.|.aX9X6XaXaX9X",
"6Xe.e.`.6X<X<X>XE C = = & @ - 1.>.X.@.G E E E E E E = = B n ).zXkX X2Xa. X#X!.aX9X9X.X`.7X@.i.e...8 3 + $ n 2X=X#X6X9XfX8.1 $ j 3.h Q ) ).H.x.,.@.g z ( ) / / ) ",
") J J ) / ) / T B v = & $ @ a =.o.+.x T ) H c c k I & & n n <XMXcX/.9XY.W.f.f.yX~.Q.OX6X8X+.).U.} f > o $ n 1XZ.U.>X6XyX+.+ & i 8 < m B l o.[ 8 4 > u V C C C C ",
"T C C C C C n v = & & $ $ $ * <. .h T / 6XK.@.{ 5 I & & n n <XMX:XH.aX#Xj.<.i.5XZ.x.Q.aX8Xu. X'.c I > o $ n ,Xy.(.>X9XfXr + & a : * & = - ; ; ; : , = = v B B B ",
"n n v v & = = $ @ @ @ @ @ & = 7. .c / 9X5X>X] _ 5 L & & n n <XMXxXn.sXZ.>.u.>X8Xb.O.K.9XaX5X5X,X/ I , o $ n .X) >X9XgXMXq . & v $ $ @ @ @ O @ @ @ @ @ @ $ = = v ",
"$ @ @ @ @ @ @ @ $ $ $ = v v B cX|.( 6XyXr.(.K.0 7 L = $ = n <XMXxXg.8XZ...c ,XaX5XwXrX6X}.f.&.i./ I ; o $ j S.mXgXjXnXsXC $ & v & = & & & $ @ $ @ @ @ O @ @ @ @ ",
"= v n B V T / / E E E / T v & MXsX6X9XaX@.).^ F Y T y o $ n <XMXlXg.rX7.0 c >X9X>X6XaX9X2X1...i./ B ; O $ p Z.VXvXvXjXaXC & & v = & = = = & & & $ $ & $ & & $ & ",
"B / ] |.p.L. X6X9X9X9X9X) n $ MXgXdXdX4Xe `.<X) ) T < . $ n 6XMXcX^.!.<.0 c >X6X6X9XaX9X0X8.{ i.) B ; o # q <.VXvXgXpX~.V & & a p q q q q w g q 2 p = v v = v v ",
"T >XaX$X2.:.P.6XaXdXaXdX>Xn $ MXjXgXgX4Xh |.9X>X) T < . $ n >XvXhX/.5...e G >X9XaXaX9X6XyX8...i./ B ; o + 7 <.cXvXiX~.<.N & & s r ......:.,.,.X...} j s V B v B ",
"T 8X+X3.,.| F >XsXuXuXaX) v $ MXjXaX9XaX>X|.>X>X<XE < . $ n / 6X~.5...8 P ) >XaX9X9X<X) 5X8...h I n ; O $ i <.mXBX;X>.O.N $ & n ~ &.9 _ o.o.X.>.>.,.:.{ ).E a B ",
"T y.1.o.| D ) 7XqX8.8.P.E B $ MXBXjXaX9XaXp.K.4XaXE y . @ = B >XY.o.9 Q ) ) <X9XaX<X>X6X}.7...c T v * @ $ u 7.cXjXOX:.8 M & & V 6X! Q i.o.o.{ { _ 9 0 6 Y C = B ",
"T s.:.&.J R <X6X).,.X.K E B $ MXjX9X6X9XaX.X{.<X>XE < . @ & n <XpXzX].l.g.f.L.4X<X) ) >X( 8...h T v & @ + f ].bXvX@Xo.> M $ & T vX9X6XT...0 H J f 3 A F R C = n ",
"T ] p.I.<X) <X>XP.,._ J T M $ nXgX9X9XaXaX9X9X4X) T < . @ $ M >XjXBXfXA.,.o.q.>X<X<X>X<X2X<.{ h C v $ @ , w.<XnXjXOX{ 3 u # & E MXdX9XY...5 ^ / Q U T ) E B = n ",
"T / <X6XaX7X>X}.Y.>.8 F T v $ vXjXdX9XaX#X#X0X6X) E < . @ $ n / gXBXhX0. .9 x ) <X9X6X4X#X<.+.x C v @ O , u.6XnXdX).0 4 ; o $ E nXdX9XU...5 }.>X<X4X/ 9X/ n = n ",
"T 6XdXaX<XaXaXOX>...8 F T v $ vXnXaX>X8Xv.4.a.>X<XT y . @ @ v T 9XnXhX@.8 k E ) <X9XyX].1.o.J T C = @ @ & C <XvX9XK 4 > ; o % E jXdXaXE. .7 ~ <X<X9X6XaXE n = n ",
"T gXjX9XaX6X<XI.[ 8 5 F T n @ gXMXgX<X5X8...u.<XaXE <   . @ v B >XjXMXt z R ) <XaX6XP.q.P P T T C = @ $ = B >XaX<XG 4 ; : + v C dXdX6XT..._ Q <X<X) ) 6XE v & = ",
"T gXvXaXaX<X4XP.8 5 G R T v @ aXMXgX>XyX].).{.6X<XE <   X O = n / aXvX'.( ) ) / >X) Q P T E E T B = @ $ v n I C M i > : y * = C ) / C S z l C T T I C T C v & = ",
"T gXvXdX8XU.L.K.H z ( >X/ v $ 6XnXjX6X6X6X9X6X>X<XT s ; . @ & n C ) aX6X) / / I T C n a s V I C v $ @ $ = n B v = a , , & = v v n = & = = = = = = = = = = & & = ",
"T gXnXdX4Xk.r.P.|.] `.1X/ n @ >XvXvX9X>XaXaX<X) >X/ C a X O $ n n B ) / T C C v v v & @ + = n n = @ @ & = n B v n v = = = v n v $ $ $ @ @ @ @ @ $ @ @ @ @ @ $ & ",
"T gXbXfXyX<X6X4X].3.o.] T v @ E jXvX9X6XaX6X) ~ <X) T u . @ $ = v v = $ $ $ $ @ @ $ $ $ & & = = = = = = v n n n n n n n b b b b b n n v = = = = = v = v v = = = ",
"T jXkX8.9.3X6XT.1.o.{ J T v @ B jXnXaXaX6X<X>X6XaX>XT i ; @ $ = n v v & = = & & & = v v v M n C T C I T E E / / / / / ~ t 9 9 9 e ! / / / / / / / E / / / B v B ",
"T R.h.,.O.0X6XT.X.0 8 D I n @ v jXnX9X7Xa._.>X<X>X) C i ; O $ = n S +.e e e e e e +.t g E E ) ) >X>X6X9X6X9X9X9X9XaXqXg.4.4.>.o.| rXdX$Xh.k.uXQ.f.t.i.yX<XC = B ",
"T t.:.$.K.8X9X<Xp.6 6 D n & $ v jXnX9X>X@.K >X6X>X/ C i : @ @ $ a h 5.4.,.4.4.4.4.,.,.<.p.2XaXaXaXdXyXdXdXdXgXgXgXzXm.5.>.>.:.%.T.fX:XH.b.@XhXm.5.,.O.~.! B = n ",
"T t.=.` ) 9X6X6X_.g g S v @ $ v gXnX9X4Xq.P ) 9X>XE C i : @ @ & < { M.M.M.M.M.x.M.M.M.5.O.rXgXgXdXjXaXpXeXtXgXjXjX@Xx.:.r.e.@.t.eXeX&Xh.Q.cXpXl.2.,.=.#.D n & v ",
"T *.=.` ] aX6X<X<X<X<XT v @ $ v jXvX6XaXE E / <X<XE C i ; O @ $ u 0 M.2.2.,.2.,.2.4.,.:.| 3XgXgXdXaXjXm.4.t.9XaX9XE.1.+.rX0X^.M.M.3.P.>X9XgX9.o.=.=.} ^ C v & n ",
"T *.=.' 6X6X9X9X6XaX<XT = @ = v dXvXaXaXaXaX9X6XaXE B a X @ @ $ & 2 2.2.:.:.o.:.o.o.o...[ r `.aXgXdXdXk.o.s.sXsX9XuXiX3XaX!.6.4.3.P.,X<X9XdX^ Q p.;.Q ~ C v $ = ",
"n t u.] <X9X7X9X9X6X/ C = @ = v dXgX6X9XaX9X<X<X<XE C b # @ @ & & a ].T.).a...{ X. .{ [ 8 6 U 6XgXgXdX.XP._.9XgXaX9XaXyX!.R.I.I.P.2X9XaXaX9X>X>XL.;.E / C = $ = ",
"n J _.>X<X6X<X>X) E C v & $ = n 9XdX6X<X6X9X6X<X>XE B v $ @ @ $ & n aXgXdX~...0 _ 0 0 9 z x ~ 4XdXjXaX9X6X<X9XsX+XQ.OXyXW.`.) ) >X6X+X/.OXaX9X6XY.;./ E C v & = ",
"n / <X>X>X>X) E I B B & @ & = v 6XdXaX6X<X9X6X>X/ E C v & @ @ $ & n jXBXnX+X{ w w w w x / ) >X2XtXgX9XsXaX4XaX#X!.j.z.6X6X>X) ) <X7Xn.x.f.gXaX6XT.p.~ / C v $ = ",
"v E / / / T B B B B B & @ $ = v ) 6X6XaX<X<X<X>XE T C v $ @ @ & & n gXNXMX$Xh / / / ~ ~ [.4X4XU.a.sXgXdX9X6XfXA.$X8X<X<XuX6X<X<X9XdXl.X.u.sX9X7X>XQ ~ / C = @ = ",
"n v & & B B B B B B B & $ = n v E / E E E E E T T B B n $ @ @ $ & n dXMXMXaXQ ) >X<XU.1.1.@.#XyX.X6XdXaX9XdXgXtX7XY.k.uXf.#XyX9XsXg.O.p.6XdXaX9X~.1.1.Q C = $ & ",
"B n v v = = & & & & & $ $ = v v n v v v v v v v v v v = & @ @ @ $ v 9XnXvXaX<XaX9XaX~.2.,.0 `.9XaX<XdXaX7X7X8X&Xg.&.w.9X#XfXdX9XsX#X].3XaX9X6X6X5X#XP.~ C v @ = ",
"B n n n = & $ @ $ $ @ $ & = v = = & $ $ $ $ $ $ $ $ $ $ @ @ @ @ $ v <XgX9X<X>X6X>X<XU.X.{ 6 (.9XaX) 6X6X7XwX!.N.=.r.).6XaXdXaX6X9XaX6X6X7X6XW. X7X9X,X/ C = @ & ",
"n n C V z d p u y v = & = = n = = $ @ @ @ @ @ @ @ @ @ @ @ @ @ @ @ v ) >XE I C C C I l 5 > q ! <X6X/ ) '.wXeXx.=.e P.8X>X6X6X<X<X<XaX<X) <X4Xl.].<X<X<X/ C = $ = ",
"n E 4X$XM.M.M.5.*.1XR M m n C = = & $ $ @ $ $ $ $ $ $ $ $ $ $ $ & v B v = & $ $ $ $ $ $ $ n T E / ) <Xy.^.3X6 5 U ) / E T / ) <X>X<X) ) >XdX>XE E ) / T C = @ = ",
"n >X+XZ.F.M.M.M.x.v.1.O.L.9X>XE T C n v = = & = = & & & = = = & = n B n v v & = = & & = = & v n C C C N V V M N B B C C C B C C C C C C C C C B B C C B & $ $ = ",
"v <X^.V.F.x.W.E.XXXX].#XtXpXf.j.h.9.7.*.%.$.| @.@.$.@.e k T T I C C C B n n v v v v v v = & & = = = = = & & & = = = = = = = $ & $ $ & & & $ $ & $ & & $ $ $ = v ",
"n <XeX&X!.3.].9XsXaXyXgXgXfX/.*X!.Q.l.4.4.,.>.:.:.:.:.=.@.Y ] ) >X6X>X>X) ) ) / E B n v = = & & $ & & $ $ $ $ $ $ $ $ $ $ $ $ @ @ $ @ @ @ $ @ @ $ @ @ $ $ = v v ",
"v <XgXjXyXk.#XdXjXjXgXgXgXgXjXdX9X6X Xy.y.t.t.t.t.t.O... .} |.<XaXjXgXeX%XtXaXdX<XC n n n = = = = * = = * & = = & $ $ & $ & & $ $ & $ & & $ $ & & $ & = = v n n ",
"n >XgXjXjXyXgXjXgXuXuX5XsXjXdXgXjXjXgXdX6X2X1X,X<X<Xw.} } } |.7XdXvXmXD.C.!.6XgX) n = n B n n b b * * = = = = = = = = = * * * * * * * = = = = * = = = v n v n B ",
"v <XdXjXMXjXgXjXzXD.0.$.T.gXgXnXgXjXnXjXjX!.8.a.6X<X,X|.|.|.<XaXdXaX5XS.,.p.<X>XE & $ v B n q  .=.=.=.G B v v v n B n M q  .O.| 9 5 4 > 1 v v v v v v B B B B B ",
"v <XgXjXvXgX9X6X].5.X.8 P.jXdXjXnXjXdXdXdXzXzXeXgXaXdXdXaXgXaX6X9XdXhX%X].{.>XE C & $ = n n +.X..... .J >XdXdX7XT B S #.>.5.x.2...K ;.y.|.<XaXR.Y.<X) E B n n C ",
"n <XdXaX6X<X) / Y X.8 f ^ 9X<X6X9X9X<X<X>X6X6X6X6X6X9XdXdXdX6X) / <X9X<X) / / C B = $ & v v c #.[ [ 0 D <XnXvXgX/ C L L.R.k.d.a.K.[.OX$XaX0X;X0.W.6X9XdX>XB = B ",
"v >X6X) T C C C N 7 1 N T E T C C T E T C C C C T T / >X>X/ E C C C B C C C B n n = $ @ & v E H [ 0 q P >XaXdXdX) C C <X) >X>X>X>X).OXtXaX5X0.o.u.) aXnX9XC $ B ",
"n / / C v = & & = & = & & & = & = & = & & & & = & = & & & = = & & = & = & & = & = & $ @ $ v <X].0 5 L >X>X/ 6X<XE C C >X<X9X9X6XtXZ.M.Q.aXyX%.| c / <XaXE = & B ",
"v v & @ @ @ @ @ @ @ @ @ @ @ @ @ @ @ @ @ @ @ @ @ @ @ @ @ @ @ @ @ @ @ @ @ @ @ @ @ @ @ @ @ $ v n y : > N T T T E E T C n E E <X9X$XZ.M.,.a.<XyX@.G Q ) <X<XE = $ B ",
"B v = & $ & $ $ @ @ @ $ @ $ $ @ $ $ $ @ $ @ $ @ @ $ @ $ $ @ $ @ @ $ @ @ @ $ $ @ $ @ $ $ $ = = - ; ; a = & & & & & = v B B T J ' 0 c x S P c 4 l C C T T C = $ B ",
"B B n v v v = = = = = = = = = & & $ & & & & & & & & & & & & & & & & & & & $ & & & & $ & & = v a y , = & $ $ $ $ $ & = n n v % , + * = = y , + * = = = = = $ $ B ",
"n B n n n v v v v v v v v v v = = = & = = & = & = & = & = & = & = = & = = = = = = & = = = & = v v v v = = = = = & = = v v $ @ @ @ @ $ @ @ @ @ @ $ @ @ @ $ @ $ n ",
"& = & = & = = & = * & = = & = & & & = = = & = = = = = & = = = = & = = = & = & = = = = & = = = = & & = = = & & = = = & = & = = = * & = & = = = = = = = = = = = = "
};
