/* XPM */
static char *result[] = {
/* columns rows colors chars-per-pixel */
"80 80 130 2 ",
"   c #3E0202",
".  c #3B0B0B",
"X  c #2C1616",
"o  c #261C1C",
"O  c #291C1C",
"+  c #351313",
"@  c #3C1414",
"#  c #351E1E",
"$  c #3B1E1E",
"%  c #252525",
"&  c #2E2525",
"*  c #2D2C2C",
"=  c #312626",
"-  c #392525",
";  c #342A2A",
":  c #3B2E2E",
">  c #333333",
",  c #3B3131",
"<  c #3B3B3B",
"1  c #440000",
"2  c #4B0101",
"3  c #430B0B",
"4  c #490B0B",
"5  c #540101",
"6  c #5C0000",
"7  c #560F0F",
"8  c #431414",
"9  c #481616",
"0  c #421B1B",
"q  c #481B1B",
"w  c #531C1C",
"e  c #640000",
"r  c #6B0000",
"t  c #660B0B",
"y  c #740000",
"u  c #7C0000",
"i  c #7D0909",
"p  c #611C1C",
"a  c #6B1E1E",
"s  c #781212",
"d  c #7B1D1D",
"f  c #472929",
"g  c #5D2222",
"h  c #522C2C",
"j  c #5B2C2C",
"k  c #413535",
"l  c #453B3B",
"z  c #4B3D3D",
"x  c #5D3737",
"c  c #533D3D",
"v  c #5C3B3B",
"b  c #672F2F",
"n  c #6B2C2C",
"m  c #732424",
"M  c #7C2222",
"N  c #7B2B2B",
"B  c #6B3636",
"V  c #653E3E",
"C  c #6B3D3D",
"Z  c #733E3E",
"A  c #7A3F3F",
"S  c #434343",
"D  c #4E4343",
"F  c #4B4A4A",
"G  c #514444",
"H  c #584343",
"J  c #554A4A",
"K  c #5A4D4D",
"L  c #535353",
"P  c #5C5151",
"I  c #5B5A5A",
"U  c #614343",
"Y  c #764242",
"T  c #794444",
"R  c #7E4949",
"E  c #625757",
"W  c #665A5A",
"Q  c #6A5D5D",
"!  c #830000",
"~  c #8B0000",
"^  c #8E0909",
"/  c #930000",
"(  c #9B0000",
")  c #920B0B",
"_  c #9D0909",
"`  c #831313",
"'  c #8C1616",
"]  c #861C1C",
"[  c #891F1F",
"{  c #951616",
"}  c #9C1515",
"|  c #921E1E",
" . c #9B1A1A",
".. c #A30000",
"X. c #AB0101",
"o. c #A40909",
"O. c #AD0909",
"+. c #B30000",
"@. c #BC0000",
"#. c #B20A0A",
"$. c #B90909",
"%. c #A51515",
"&. c #A91616",
"*. c #A11A1A",
"=. c #AB1B1B",
"-. c #B41313",
";. c #BC1A1A",
":. c #822424",
">. c #8D2323",
",. c #862929",
"<. c #8B2D2D",
"1. c #932525",
"2. c #9A2424",
"3. c #932929",
"4. c #9B2929",
"5. c #853434",
"6. c #8B3333",
"7. c #A02A2A",
"8. c #C30101",
"9. c #CB0000",
"0. c #C30909",
"q. c #CA0808",
"w. c #D20101",
"e. c #DB0000",
"r. c #D60909",
"t. c #D90A0A",
"y. c #C81313",
"u. c #E30000",
"i. c #EA0000",
"p. c #804B4B",
/* pixels */
"< < < < < < < < < < < < > < < > < < < < < < < < < > < < < < < < < < < < < < < < < < < < < < < < > < < < < < < < < > > < > > < > < > < > < < > < > > < < < < < < ",
"F < S S S S < S S < F S S S S S S l S S S < < S l S S S S S < F F S F F S F F < S S < S S < S S S S F F F F F F F F F S F S S S < > < < S S F F F S S S S S < < ",
"S N 2.2.>.>.1.>.>.>.3.>.>.>.>.m c F F K >.| 1.>.>.>.>.>.>.>.1.3.3.3.3.<.3.3.1.>.>.1.>.>.>.M c S S J 3.4.7.7.4.4.3.4.4.1.1.2.1.>.] ] ] [ >.:.<.<.>.:.:.:.:.M b < ",
"< -.u.e.9.9.w.9.8.9.w.9.9.9.8.( j S F E r.u.w.8.9.@.8.9.9.9.@.9.9.9.9.9.9.9.8.9.@.9.w.9.8.( j < S J r.e.e.u.e.e.w.w.w.e.9.w.9.8.w.9.9.9.8.8.8.@.@.8.+.@.@.X.` S ",
"F -.e.@.X.X.9.X./ ..9.( ..@.( r $ < F K r.9.../ @.~ X.../ +.! ..X.( @.( X...~ +.! ..8.@...y $ > S k 8.+.+.@.X.8.+.X.+.@.u X...~ 8.+.@.X./ X...~ ( @.( @.X./ t * ",
"F &.8...! ../ ( ( / ! ( ( ~ y e $ < F J 0.9...~ / ( / ! ! ....! ! ( ....! ! ( ..u / ../ y 6 $ < F J 0.+...( u y / ( ~ u ! ( / ! / ( ..( ~ ..! ! ( / e ..! r 7 * ",
"F %.+.~ ( ..! ! ( ../ ! ~ ~ 6 2 # < F K 0.X.( X.( / / ~ u ../ / ~ ! ..! u ! ~ ..y / / u r 6 # < F G 0.( / / r u / ~ y / u / / ! ( / ( ~ u ../ ! ~ ( y ( ! e 4 & ",
"F %.+.~ / / ~ ! ~ ..~ ! ~ / e 1 # < F K $.X.......~ / ~ ~ ..u ~ ~ u ..! u ! ~ ~ u ! ! ~ r 5 # < S D $.~ ! ( y / / ! y ..y ! ~ / ..! ( ~ ! ....! ~ / r ( ~ e 3 * ",
"F } +./ ~ ~ ~ ~ ~ ( y ! / ~ e 1 O > F J #.@.../ ..! ~ ~ / ( y ! ! u ( ~ u u ~ ! ! u ! / r 2 # * < D O.~ ~ / u / / ! y ( y y ! ( ( u / / ~ ..( ! ~ / e ( ~ r . * ",
"F { ..~ ....u ! ../ y ~ ! r 5 1 # < F G O.8.X.~ ( y / ~ u ( u / ~ y / ~ y y ! ..y ~ ~ u r 6 $ > < D O...( / e ! ( ~ u ! y u ! ! ..! ( ! y ( u ! / ( u ( u 6 . * ",
"S { X./ y ~ r e u u 6 r u ! r 1 O > S K ) ( ~ y y 5 u u y u ! u e 5 y ! y u ! y 5 u u y r 2 # > < G O.~ y y 6 y y e e ! 5 e r r ~ 6 r e 6 ~ r 6 e u ! u ! e . * ",
"F d ! y r r 5 1 2 5 2 2 5 5 2 1 # > < F i u r e e 5 e e 6 6 e e 6 6 6 6 5 5 5 2 1 2 5 2 2 1 O ; < D ) y e e 6 e e e e r 6 e e e e 5 6 6 6 e 6 5 6 6 e 5 5 2 . * ",
"S x w 9 8 9 @ + # + + # + + X + & > < J b w 9 8 8 8 8 @ @ @ . @ @ . 8 + + X + X + + + + + # & > S J g q 8 9 9 8 9 8 9 9 9 8 9 8 @ @ . @ @ @ . 8 8 8 $ @ + # # * ",
"F S < ; > ; > > > > > ; * % % o & > < F S > > > > > > > % & % % * ; > > & % % % * * > > > > < < F F < < > < < < < < < < < < < , > * * % % % * * > > > > ; < > * ",
"K z k k k , z D D G D k , k , , k l z k S F F F G G D D z k k k D J G G G z , , D D D F D D D G G k D J P K K P P W Q Q E P J J D D S l < S K z D K D D G J J k ",
"t.q.8.$.0.+.o.O.O.O.O.O.O.O.o.O.O.o.O.) G F F B t.r.q.0.0.0.$.8.$.0.$.$.$.$.$.$.$.$.+.O.O.O.O.O.#.o.O.#.O.O.O.#.O.O.#.O.#.O.#.O.O.( x S S J y.r.q.0.0.8.0.0.0.8.",
"8.X.( ..@...( ( X.~ ..( ....! X...../ 6 k F F Z u...X.8.@.( @.( / ..@.( ( X.8...X.../ / / X.( ..X.( ..( ..+.! @...( X.@.8.X.+.@...r f S S z r.e.@...@...+.X...@.",
"( / / ~ X.~ ! ~ / y / / ~ ! u ..( ~ u   ; S F Z e.( / ....u X./ ! / X.u ~ ( / ! / / ~ ! / / / ~ ! ( ..~ ~ / ! ..( / ~ ..+./ ( X.! 2 - l S D 0.9.( ! ..~ / / ( ..",
"! ( ( / ( ! ! ! ! r ( ~ u y ! ( ..~ e   & < S B w.X.! ~ ( ! ( ( / ! ( y ~ ~ u r u ( / ! ( u ~ ~ u ( ..! y u ( / / ~ u ! ( ~ ! ~ y 1 - < F J $.X./ ~ ../ ! ~ ( / ",
"y / ..( ~ / y ! ( u ! ! / ~ e ( ~ u e   & > l B 9.u / ( ~ / ~ ! y y ~ ~ y ! ( ! r / ( ! u e y ! ! ~ ( y r ! u ( ! ! / y ( ..~ y r 1 O > S D $./ / ......~ ~ ( u ",
"( / ~ / ..~ u u ! ! u / ( ~ e ( u r e   & > S B 9.u / ..( ! ( u y ~ ( r r ! / r u ( / u ! u / ! u ( ~ r y / r ( ! u ! y ( ! ! / r 2 # > < D $.+./ ~ ..! / ( / u ",
"u / ! u ..u ! ! ! / y / / y ! ../ ! e   & < F C w...u ! ( u ( ~ y u ~ e y ! u e / / ~ y r y / ~ y ~ r y ~ / e ~ / ! u ! ..! ! ( r 1 X * < D O./ / ( ..r / / ! ! ",
"y / ~ r ~ e y u u / y ~ ! e y / ~ u e   & < F Y 8.X.y u ~ r ! ~ u y ! e y u y e ! ~ ! y y y ~ ! y ! y y ! / r u ~ u e u ( u ! ~ r 1 X * S J o.( ~ ~ ~ 6 u ~ ! u ",
"e ~ ! 6 e 2 e r r ! r u u e 6 u y e 6   ; S F V X./ u y y 6 r ! u y u r r y y 6 r u u y ! e y y r u u e r ! e r y e 5 r ! y y y e 1 o * S J o.( ! r r 5 6 y ! e ",
"  1 2 2 2 1 2 2 2 1 2 1 2 2 2 2 1       ; S F V ( r e 6 e 6 e e e 6 6 e e 6 e 6 e 5 5 5 5 5 5 5 5 5 5 5 5 5 5 5 5 5 5 5 5 5 5 5     X > S , ) y 5 1 6 1   2 5   ",
"& & & & o & = & & o o % O = & & % o o & < S S < G k , ; = = = = ; = = ; , , , , : - = = = % o o o o o O = = & o O O o o = = = = & & > < F L G : = & = & & = & & ",
"S F S < * > < S S > S < < < < > * > > > S S F F F S S < > < > < < < > < S S S S F < < S l < * > > * < < S S l S < < * * < < S S S S S F F S F S < > < S S S l S ",
"L 6.4.1.] ] >.>.>.] 1.] :.:.:.d d d d d :.:.:.,.:.:.:.:.:.d d d d d a z F J U 4.4.>.>.3.>.>.] ] ] ] [ [ >.:.:.,.:.d d d M M :.M :.,.:.:.:.d ,.:.M d M ,.:.M b F ",
"L ;.u.w.9.9.8.9.9.@.9.8.@.+.X.@.X.+.@.@.+.+.+.+.+.+.+.@.+...+.@.+...! z F L Y i.u.8.9.9.9.9.8.9.9.9.@.9.9.8.+.X.X.X.+.X.X.X.+.+.X.+.+.+.+.X.+.X.X.+.+...+...s < ",
"L ;.8./ X.@./ / X.u +.~ / ..~ X./ ( +.8.~ ..( / X.~ X.+.( r ..@.( r   > S F A u.8.~ / 9.( X.~ / ..X.~ ....( X.! r ! ( ! y ! / ( u ! ( ( / ~ ..~ ! ~ ( e ~ y . * ",
"< -.9...~ ..( ( ( u u ! / ..( ~ / / / ..~ y ! / u ( / ! y ! ..~ ~ /   & S J T w.8.( ( ( y ( u y ! u / ~ u y ..r u / / r / ! ! ( ! ( / / / r ( ( ~ ~ ..u y 6 . * ",
"S %...! ( ..~ ! ! e ~ u ~ ( ! ( / ~ / ..y u ~ ( y ~ / ~ u r ! / ~ y   & S I p.w.8./ / / u ( u u ~ y / ( ~ ! ..u ~ / ! r ( ! y ! / ( ! ! / ! ( ..~ ! ..r r 6 . * ",
"F { ..~ / ..y y ! 6 ! u ~ ( u ~ ! ~ ( ~ u y ! ~ ! u / / u e ~ ~ u 6   & F I R 9.( / ~ ~ ~ / y y / ! ! ( ~ u / y ~ / ~ y / u y u / ( ! ~ / y ( ( ~ ~ ( y r 6 . * ",
"F { +.( ! ..e y ~ e u u ~ ( u u u ~ ( u u y y ~ ( r / / u y / u r e   & S L T 9.~ / ~ ! ~ ~ u u / ~ y / ~ r ~ e u ~ ~ y ~ y y ~ y ( ~ ~ ( y / ! y ! / ! y 6 . * ",
"L  .( r e ( r e ! u ( y u ~ 6 ( u u ( ! r u / ( ! r ~ ~ y ! u u ~ /   & S F Z w.9.! ! / y ( ~ ~ ( ! y / ! y ( e r r r 5 / e y / 6 / e y ( ..! y 6 5 y ! u 6 . * ",
"F %.+./ e y r r r 6 y 6 e y r ~ y y ! y r ! ! y y e r ! ~ y / u y r   & > S Z 9.X.! ! / y ~ r r y y r y y r ! y u r e / r r ! ~ 5 y u y r ..r ! u e ( y r 6 . * ",
"S ' ..~ e e r r r e e e e r e r e r r e e e 6 5 5 5 5 6 e 5 e 6 5 2   & > S U +.u r y y e y e e r e e r e e r r e e 6 r 6 6 e r 5 6 e 6 6 r 6 e 6 2 y y r 5 . & ",
"F b a p 9 8 9 8 8 9 9 8 8 8 9 9 9 9 9 9 8 @ @ @ @ 0 0 0 $ + @ @ + + # & < S H m 9 8 9 8 9 9 8 8 9 8 3 @ 3 8 8 8 9 9 q 9 q 8 @ @ . @ @ 8 8 8 8 @ @ @ 8 9 9 @ O * ",
"F F F < < > > > > * > > > > * > > > < < < < > < > < < < > > ; * > * * > < F F S < > > > ; > > < > > * % % & % % > < l S < < * & % & * > < > > > > > > > > > > > ",
"K K K K K K G D D k D k , , < F L I Q Q K K K K D G D D z z k k k l k k l G J G G G G J < K G J K D l < < S , z D G K J D D D l k l D D D D K z D J D D D J J , ",
"#.O.O.O.O.#.O.O.O.O.O.O...] S < F 5.0.0.0.0.0.0.0.0.0.$.O.o.o.O.O.O.O.o.o.#.O.O.O.O.O.O.o.O.O.O.O.) G F L C $.r.0.0.0.0.0.0.8.0.8.0.0.$.O.O.O.O.O.O.O.O.O.O.O.O.",
"X.+.+.+.+...@.@.+.+.8.+.! 7 < S S :.9.+.~ X...( +.+./ / X.( X.X.( ~ X.( ! / X.X.! ( X...~ X.( ( / 6 k S F Z 9.@.....X./ X.+.( / +.( ( / / X.~ ....( X./ ..( / X.",
"..( / ( X.( X...( X.../ r . > S S ,.8.! ! ~ ! ^ ../ ! / / u ( ( ~ u ~ ~ u ~ ( / r ~ ( ! ! ( ! ! ~   , F L Z w.X.u ! ( y ( ( ! y ..! ~ ~ ! / u / ~ ! ( u / ~ u ~ ",
"( ! ! / ../ ( / ! ( / u 6 . * S F ,.@.e ( ~ ! ~ ( ~ / ( / y ( / ~ ! r ~ ! ! ( ! y / ~ y ~ ( u ! ~   , F L Y 9.X.y u / y ( / u u ( / ( / ! ~ ! / ~ ! ( ! ~ / ! y ",
"~ ! ~ ../ ! ( / ! / ..u 5 . * S < M +.r ( ( / ! ( ..u ! / y ( ~ / ~ e ( e r ~ ~ ( / u u / ..~ ~ ~   , F I R 9.X.~ ~ / y ( / / ( ~ ( ../ ~ ( u ~ ~ ~ ..( ! ~ / y ",
"( ~ ! ~ ../ ( ( ~ ! ~ u 6 . < F F <.9./ y / / ! ( ! e y / ! ~ ^ ! u ! ( y u ( ! y u ~ ~ y ~ ( / r 3 , F I R 9.~ / ../ y ( u ! ..( ! ! ~ / ! / / / / ( ~ u u u ! ",
"../ ! ! ..~ ( / ! / ( u 6 . < S F <.@.y ~ ~ u r ( ( y u ~ ~ ( ~ ~ ~ u ~ e e ! / r ~ ( ~ y / ~ ~ u 1 > S L Y 9.( ~ / ../ ! ~ / ~ / u ~ / ~ / ! ~ / ~ ( ! ! ~ ^ u ",
"~ ! u ! ( u ! ~ ! ! ~ u 6 . < S F m ..r ( / y r ( / u u / u ..! ~ / e ! e r ! ~ e ~ / ! ! ..! u u   ; S F Y 9.X.u ! ( ~ ! ( ( ~ / ! ( / ! ..y ~ ~ ! ( ! ~ ( / r ",
"e e r u ! r e y u e e e 5 . < S S n ~ e ~ / u r / u r u ~ r ~ r y ! 6 y r y ~ u e u u y ~ ~ y e e   & S F C @.( r y ~ y ~ / ^ ! / ! ~ ! u / y ! u y ! y ! / ! e ",
"    1 2 2 2 2 2 2 2 1 1 3 . & S F n / e 6 e 6 6 6 e 6 e e e 6 5 5 5 5 5 5 5 5 5 5 5 5 5 5 5 5 2     & < S x ( e 6 e 6 e e e e 6 e 6 6 e e 6 6 e 6 6 5 6 5 5 5   ",
"& & & & = & & = & & & & & & * S F J l = % o o o O = ; ; : , , ; % O o o o o o = = = & & = = & = & & < S F F c ; ; ; = = , , k S : = = & % o o % = & = = = = & & ",
"S S S S > < < > < S < < > > < < F D S > > ; < < < < S S F F F S < < > * > < S S < S S S < < < < < > S S F F F S < < S S F F L I F S S l < > l S S S S F < < S > ",
"F N 2.1.] >.[ ] ] >.>.] d d d d :.:.M d d d d :.:.:.:.:.:.,.,.:.:.M d d d :.:.m z F F v | 2.[ [ >.] >.>.>.3.>.3.] :.,.:.,.<.<.6.,.:.:.:.:.d ,.:.:.,.:.,.] M b l ",
"l &.w.9.@.8.8.8.@.9.9.+.X.+.+.X.+.X.X.+.+.X.X.+.X.+.+.+.+.X.+.X.X.@.+.X.X.X.X.! , F F b i.e.w.8.@.9.@.9.8.+.9.@.+.X...+.+...X.+.X...+.+.+.X.+.X.+.X.X.X.+...s S ",
"L =.@.( ! ~ ( ! y ....~ ~ ( ( ! / ~ y ~ ..y ! ( u ../ / / e ( u u ....! y ! ~   > S F A u.X...! r ( r ~ ! r ( y / ! r ..! r u / ~ y / / ! ! ( ~ ~ ~ y ! / y . * ",
"F %.8./ r ( / u y ..~ ~ ~ ! ..r ! y r ..( y u / 6 ! / ~ u r ( ! ~ ( ! ( u ! !   = < F B w./ ( ~ r ~ r y r e ~ e ! ~ ! ..e ~ ! y ( y ! ! u ( ~ u ! ( ( r ! r . * ",
"F %.+.~ r ( u y u u y / ! u ..! u u ! ..u u ~ ~ u e u ~ ! 6 / y u ! r ~ ~ u r   & > S B 9./ ( ! e y u / ! r r ! ~ y r ( ~ y u ~ ! y ~ ~ u ..! / ~ ! ~ e ! y . * ",
"< %.@.~ u ( ! u u ~ y ~ ~ ! ..! ~ ! u / ~ u ! ~ r y ! ~ u y / u u / ! / ! u r   & > l B w.( ~ ! ! y y / ~ y u ! ~ u y ~ ! y u ! ! u ~ ~ ~ / ~ ~ ! u / u / y . * ",
"S %.@.( u ( / u y ..! ! ~ / ( u / ~ r / / y ! / 6 ! / ~ y / ( ! ~ ( / ( u u y   % > S B w.X.y u / ~ e ~ u r ..y ~ ~ y ! 6 u u y ( u ~ ~ ~ ! ( ! u u ( ! / r . * ",
"L &.8./ e ! ( ! y ( r ~ ! y ..r ~ ~ u ( r e u / 6 u u ~ / u ~ r u ~ e ! u ! ~   o > S Z 9.X.u e y ( r u r r ..e ~ ! e / e ~ ~ r ! y / ~ y u ( ~ ~ / ~ e y 6 . * ",
"< } +./ r ( u y ! y ! / ~ ! ( ! ~ ~ ~ ../ y y ! y e e ! / 5 / ! u / u ( u ! ~ 1 o > S C 9.u ~ ! r ~ r ~ u e ! / ~ r e / y ! u y ( y / ~ u ( ! ~ ! u ( r ~ y . * ",
"F { ( y e y r e r r r y y r e e 6 6 e e e 6 6 6 6 5 2 6 6 2 e 6 6 6 6 e 6 6 6   & < F V ..y y y e r e y r e r y r e 6 r 6 e 6 5 e 6 e e 6 e 6 6 6 6 e 6 6 5 . * ",
"S b w 9 8 9 9 8 8 9 8 9 8 8 $ 0 0 0 $ @ + + + + + + @ @ @ + + + + @ @ @ + + + + * < F c m q 8 9 9 8 8 9 8 8 8 . 8 0 q q 9 8 @ @ @ @ @ @ @ + + + + @ @ @ + + # * ",
"S S l > & < > > > < > > > > < l S S < > & % % * & < > > & % % % % * ; < * % * > > l S S S > > > > ; > < * & * * * < < < < < * * > > > * * % % o % * > > > > > > ",
"K z z J k K J J J D G D D G P Q Q E K D K z S J F L J z z k k k k z G K J G c k D D G J k J G G G D G G D D D D G J L L J F D G G D G z , : O O = : k D D J K D ",
"0.0.0.0.8.0.#.O.O.O.O.O.O.O.O.O.O.#.O.O.O._ m F L F =.t.r.$.$.8.$.0.0.0.0.0.$.o.O.O.O.O.o.#.#.O.O.O.O.O.O.O.O.O.O.o.] F S F 6.r.0.0.0.0.8.$.+.o.X.o.o.+.O.O.O.O.",
"/ X.( ~ +.+.~ ~ ( ! ..( ..+./ X.~ / ..~ X.y 9 < F F &.9.+.+.+.+.../ X.u ....( X.! ( ( ~ X...X./ ~ ..! ( / ! X.~ ! y 7 < S F <.w.X.~ ( ....! ../ ( ..~ ..~ / ..! ",
"/ / u u ../ ! ! u ! ~ u / ..r ~ y u ~ y ~ 6 @ > S F %.+./ ../ ( ~ r ! 5 u ~ ~ / ~ ~ ! r / / ~ u u / y ! u r ( y u e . < S L 6.@.! ! y ~ / r ( ! u / ~ ~ ! ~ ~ 6 ",
"..! y u ( ~ ~ ! u ~ u y ! ~ 6 u y y u y ! 5 + > F S &.X.! ( y / ~ e y 6 u ! ~ ! ~ ~ ! y u ( y y ! u y u y y ( r ! y . > S L <.@.r ( y y ~ u ..! u ~ ( y ~ ~ y 6 ",
"..~ r e u ( y u ~ e u / / y 6 ( ~ y y / u 5 + > F l %.X.u u y / ! r u u / ! r ( 6 ~ ../ r ( u u / r ! e r ! ! r r 6 . * S F 6.+.r ( u r ! ....~ u u ! y e r y ~ ",
"! ~ u e / y r u / e / ~ ~ ~ 6 u u r y ..r 2 + > S S %.@.~ 5 r / ~ y ( 6 ~ / ! / e ~ ~ y ! u r ! / r ( ~ y e y ~ y 5 . * S L 6.9.( y 6 u ( ~ u y ! / y ( y r u ..",
"r / ~ u ( r ! ! u u ..u ! ( r e y ~ ~ ! u 5 @ > S S %...r ~ / u ! ~ ! e ! u r ! 6 ~ ~ r / y y u ! e ~ u r e u u r 5 . * S F ,.@.u ~ ! ~ / u ~ ! u u y r ! ! u ..",
"e / / u ~ r ~ / u u ( y u ! r u y ~ / y ~ 5 + > F S %.( e ..~ ! ! ! u y ! r 6 ! 6 u u r ..y y u ! y y ! y e / r r 6 . * < S ,.+.e ( ! u ! e ( ! ! ! r 6 u ! ! u ",
"r ~ ~ u ! r u ~ ! e ~ y y u 6 ( u u ~ r ~ 6 + > S F &...r ~ y / ~ r ! y ! y e ( r ! y e / ! r u ( ~ r ~ u r ( e u r . * < S ,.+.e ~ r r y 6 ( ! ! ( y r e u / 5 ",
"u ~ u e ( r 6 y u e u u ~ ~ 6 / y e y ! u 5 @ > F F *.+.~ 2 e ~ ! r ( 5 y y y ( r ~ ~ r e ( y r ! ( r u u y ! e y e . * > S M X.e e 6 y ~ 6 / u ! / r ( y u / r ",
"5 5 5 2 5 2 5 5 5 2 5 2 5 5 2 5 5 5 5 5 1 1 + > F F ' u 2 1 1 2 2 2 5 2 2 5 2 5 5 5 5 2 5 5 5 5 5 5 2 5 5 5 5 2 2     % S L N ~ 1 1 1 5 5 2 5 5 5 5 5 5 5 5 5 5 ",
"# # # # # # O # # # $ # # - $ # # # # # & # & > F F V h - - - # - # # - # $ # # # # # # - # # $ # X X X X X X # X X o o < S G j # O # # # # - + X X X X X # - # ",
"> < < < S > > > < < < < < < < < S < > < < < < < F L L F S S < < < < < < < < < S < < > < < < < > > * * * > & * > > > > * < F F S < < < < < < < > > * * > > > < < ",
"< J F S L S < S < F F F F F F L L F S F F F F L L L L L L L F F F F L F F F F L F F S S F F F S S < S S S < S S F F S < S F L F S S F L F F F F F S < S S F F F ",
"L L L L L L L L L L L L L L L L L L L L L L L L L L L L L L L L L L L L L L L L L L L L L L L L L L L L L L L L L L L L L L L L L L L L L L L L L L L L L L L L "
};
